<svg xmlns="http://www.w3.org/2000/svg" style="overflow: hidden; display: block; width: 1471px; height: 940px;" width="1471px" height="940px" viewBox="0 0 1471 940" xmlns:xlink="http://www.w3.org/1999/xlink"><defs><path d="M 15,8 L 15,-8 M 10,0 L -2,8 M 10,0 L -2,0 M 10,0 L -2,-8" stroke="rgb(0,0,0)" stroke-opacity="1" stroke-width="1" stroke-linecap="butt" stroke-linejoin="miter" stroke-miterlimit="10" id="ygc159_0"/><g id="ygc159_1"><circle cx="15" cy="0" r="5" fill="#fff" stroke="rgb(0,0,0)" stroke-opacity="1" stroke-width="1" stroke-linecap="butt" stroke-linejoin="miter" stroke-miterlimit="10"/><path d="M 10,0 L -2,8 M 10,0 L -2,0 M 10,0 L -2,-8" stroke="rgb(0,0,0)" stroke-opacity="1" stroke-width="1" stroke-linecap="butt" stroke-linejoin="miter" stroke-miterlimit="10"/></g><path d="M 10,-8 L 10,8 Z" stroke="rgb(0,0,0)" stroke-opacity="1" stroke-width="1" stroke-linecap="butt" stroke-linejoin="miter" stroke-miterlimit="10" id="ygc159_2"/><path d="M 10,0 L -2,8 M 10,0 L -2,0 M 10,0 L -2,-8" stroke="rgb(0,0,0)" stroke-opacity="1" stroke-width="1" stroke-linecap="butt" stroke-linejoin="miter" stroke-miterlimit="10" id="ygc159_3"/><path d="M 10,-8 L 10,8 Z" stroke="rgb(255,255,255)" stroke-opacity="1" stroke-width="1" stroke-linecap="butt" stroke-linejoin="miter" stroke-miterlimit="10" id="ygc159_4"/><path d="M 15,8 L 15,-8 M 10,0 L -2,8 M 10,0 L -2,0 M 10,0 L -2,-8" stroke="rgb(0,0,0)" stroke-opacity="1" stroke-width="1" stroke-linecap="butt" stroke-linejoin="miter" stroke-miterlimit="10" id="ygc159_5"/><path d="M 15,8 L 15,-8 M 10,0 L -2,8 M 10,0 L -2,0 M 10,0 L -2,-8" stroke="rgb(0,0,0)" stroke-opacity="1" stroke-width="1" stroke-linecap="butt" stroke-linejoin="miter" stroke-miterlimit="10" id="ygc159_6"/><path d="M 10,-8 L 10,8 Z" stroke="rgb(0,0,0)" stroke-opacity="1" stroke-width="1" stroke-linecap="butt" stroke-linejoin="miter" stroke-miterlimit="10" id="ygc159_7"/><path d="M 10,-8 L 10,8 Z" stroke="rgb(0,0,0)" stroke-opacity="1" stroke-width="1" stroke-linecap="butt" stroke-linejoin="miter" stroke-miterlimit="10" id="ygc159_8"/><path d="M 10,-8 L 10,8 Z" stroke="rgb(255,255,255)" stroke-opacity="1" stroke-width="1" stroke-linecap="butt" stroke-linejoin="miter" stroke-miterlimit="10" id="ygc159_9"/><path d="M 10,-8 L 10,8 Z" stroke="rgb(0,0,0)" stroke-opacity="1" stroke-width="1" stroke-linecap="butt" stroke-linejoin="miter" stroke-miterlimit="10" id="ygc159_10"/><path fill="rgb(0,0,0)" stroke="rgb(0,0,0)" d="M 0,0 L 10,-5 L 5,0 L 10,5 Z" fill-opacity="1" stroke-opacity="1" stroke-width="1" stroke-linecap="butt" stroke-linejoin="miter" stroke-miterlimit="10" id="ygc159_11"/><path fill="rgb(0,0,0)" stroke="rgb(0,0,0)" d="M 0,0 L 10,-5 L 5,0 L 10,5 Z" fill-opacity="1" stroke-opacity="1" stroke-width="1" stroke-linecap="butt" stroke-linejoin="miter" stroke-miterlimit="10" id="ygc159_12"/><g id="ygc159_13"><circle cx="15" cy="0" r="5" fill="#fff" stroke="rgb(0,0,0)" stroke-opacity="1" stroke-width="1" stroke-linecap="butt" stroke-linejoin="miter" stroke-miterlimit="10"/><path d="M 10,0 L -2,8 M 10,0 L -2,0 M 10,0 L -2,-8" stroke="rgb(0,0,0)" stroke-opacity="1" stroke-width="1" stroke-linecap="butt" stroke-linejoin="miter" stroke-miterlimit="10"/></g><path fill="rgb(0,0,0)" stroke="rgb(0,0,0)" d="M 0,0 L 10,-5 L 5,0 L 10,5 Z" fill-opacity="1" stroke-opacity="1" stroke-width="1" stroke-linecap="butt" stroke-linejoin="miter" stroke-miterlimit="10" id="ygc159_14"/><path fill="rgb(0,0,0)" stroke="rgb(0,0,0)" d="M 0,0 L 10,-5 L 5,0 L 10,5 Z" fill-opacity="1" stroke-opacity="1" stroke-width="1" stroke-linecap="butt" stroke-linejoin="miter" stroke-miterlimit="10" id="ygc159_15"/><linearGradient x1="0" y1="0" x2="1" y2="1" spreadMethod="pad" id="ygc159_16"><stop stop-color="rgb(232,238,247)" stop-opacity="1" offset="0"/><stop stop-color="rgb(183,201,227)" stop-opacity="1" offset="1"/></linearGradient><linearGradient x1="0" y1="0" x2="1" y2="1" spreadMethod="pad" id="ygc159_17"><stop stop-color="rgb(232,238,247)" stop-opacity="1" offset="0"/><stop stop-color="rgb(183,201,227)" stop-opacity="1" offset="1"/></linearGradient><linearGradient x1="0" y1="0" x2="1" y2="1" spreadMethod="pad" id="ygc159_18"><stop stop-color="rgb(232,238,247)" stop-opacity="1" offset="0"/><stop stop-color="rgb(183,201,227)" stop-opacity="1" offset="1"/></linearGradient><linearGradient x1="0" y1="0" x2="1" y2="1" spreadMethod="pad" id="ygc159_19"><stop stop-color="rgb(232,238,247)" stop-opacity="1" offset="0"/><stop stop-color="rgb(183,201,227)" stop-opacity="1" offset="1"/></linearGradient><linearGradient x1="0" y1="0" x2="1" y2="1" spreadMethod="pad" id="ygc159_20"><stop stop-color="rgb(232,238,247)" stop-opacity="1" offset="0"/><stop stop-color="rgb(183,201,227)" stop-opacity="1" offset="1"/></linearGradient><linearGradient x1="0" y1="0" x2="1" y2="1" spreadMethod="pad" id="ygc159_21"><stop stop-color="rgb(232,238,247)" stop-opacity="1" offset="0"/><stop stop-color="rgb(183,201,227)" stop-opacity="1" offset="1"/></linearGradient><linearGradient x1="0" y1="0" x2="1" y2="1" spreadMethod="pad" id="ygc159_22"><stop stop-color="rgb(232,238,247)" stop-opacity="1" offset="0"/><stop stop-color="rgb(183,201,227)" stop-opacity="1" offset="1"/></linearGradient><linearGradient x1="0" y1="0" x2="1" y2="1" spreadMethod="pad" id="ygc159_23"><stop stop-color="rgb(232,238,247)" stop-opacity="1" offset="0"/><stop stop-color="rgb(183,201,227)" stop-opacity="1" offset="1"/></linearGradient><linearGradient x1="0" y1="0" x2="1" y2="1" spreadMethod="pad" id="ygc159_24"><stop stop-color="rgb(232,238,247)" stop-opacity="1" offset="0"/><stop stop-color="rgb(183,201,227)" stop-opacity="1" offset="1"/></linearGradient><linearGradient x1="0" y1="0" x2="1" y2="1" spreadMethod="pad" id="ygc159_25"><stop stop-color="rgb(232,238,247)" stop-opacity="1" offset="0"/><stop stop-color="rgb(183,201,227)" stop-opacity="1" offset="1"/></linearGradient><linearGradient x1="0" y1="0" x2="1" y2="1" spreadMethod="pad" id="ygc159_26"><stop stop-color="rgb(232,238,247)" stop-opacity="1" offset="0"/><stop stop-color="rgb(183,201,227)" stop-opacity="1" offset="1"/></linearGradient><linearGradient x1="0" y1="0" x2="1" y2="1" spreadMethod="pad" id="ygc159_27"><stop stop-color="rgb(232,238,247)" stop-opacity="1" offset="0"/><stop stop-color="rgb(183,201,227)" stop-opacity="1" offset="1"/></linearGradient><linearGradient x1="0" y1="0" x2="1" y2="1" spreadMethod="pad" id="ygc159_28"><stop stop-color="rgb(232,238,247)" stop-opacity="1" offset="0"/><stop stop-color="rgb(183,201,227)" stop-opacity="1" offset="1"/></linearGradient><linearGradient x1="0" y1="0" x2="1" y2="1" spreadMethod="pad" id="ygc159_29"><stop stop-color="rgb(232,238,247)" stop-opacity="1" offset="0"/><stop stop-color="rgb(183,201,227)" stop-opacity="1" offset="1"/></linearGradient><linearGradient x1="0" y1="0" x2="1" y2="1" spreadMethod="pad" id="ygc159_30"><stop stop-color="rgb(232,238,247)" stop-opacity="1" offset="0"/><stop stop-color="rgb(183,201,227)" stop-opacity="1" offset="1"/></linearGradient><linearGradient x1="0" y1="0" x2="1" y2="1" spreadMethod="pad" id="ygc159_31"><stop stop-color="rgb(232,238,247)" stop-opacity="1" offset="0"/><stop stop-color="rgb(183,201,227)" stop-opacity="1" offset="1"/></linearGradient><linearGradient x1="0" y1="0" x2="1" y2="1" spreadMethod="pad" id="ygc159_32"><stop stop-color="rgb(232,238,247)" stop-opacity="1" offset="0"/><stop stop-color="rgb(183,201,227)" stop-opacity="1" offset="1"/></linearGradient><linearGradient x1="0" y1="0" x2="1" y2="1" spreadMethod="pad" id="ygc159_33"><stop stop-color="rgb(232,238,247)" stop-opacity="1" offset="0"/><stop stop-color="rgb(183,201,227)" stop-opacity="1" offset="1"/></linearGradient><linearGradient x1="0" y1="0" x2="1" y2="1" spreadMethod="pad" id="ygc159_34"><stop stop-color="rgb(232,238,247)" stop-opacity="1" offset="0"/><stop stop-color="rgb(183,201,227)" stop-opacity="1" offset="1"/></linearGradient><linearGradient x1="0" y1="0" x2="1" y2="1" spreadMethod="pad" id="ygc159_35"><stop stop-color="rgb(232,238,247)" stop-opacity="1" offset="0"/><stop stop-color="rgb(183,201,227)" stop-opacity="1" offset="1"/></linearGradient><linearGradient x1="0" y1="0" x2="1" y2="1" spreadMethod="pad" id="ygc159_36"><stop stop-color="rgb(232,238,247)" stop-opacity="1" offset="0"/><stop stop-color="rgb(183,201,227)" stop-opacity="1" offset="1"/></linearGradient><linearGradient x1="0" y1="0" x2="1" y2="1" spreadMethod="pad" id="ygc159_37"><stop stop-color="rgb(232,238,247)" stop-opacity="1" offset="0"/><stop stop-color="rgb(183,201,227)" stop-opacity="1" offset="1"/></linearGradient><linearGradient x1="0" y1="0" x2="1" y2="1" spreadMethod="pad" id="ygc159_38"><stop stop-color="rgb(232,238,247)" stop-opacity="1" offset="0"/><stop stop-color="rgb(183,201,227)" stop-opacity="1" offset="1"/></linearGradient><linearGradient x1="0" y1="0" x2="1" y2="1" spreadMethod="pad" id="ygc159_39"><stop stop-color="rgb(232,238,247)" stop-opacity="1" offset="0"/><stop stop-color="rgb(183,201,227)" stop-opacity="1" offset="1"/></linearGradient></defs><g style="pointer-events:visiblePainted" transform="translate(314.8429847560967 506.7252575999998)" image-rendering="auto" shape-rendering="auto"><g><path fill="none" stroke="rgb(0,0,0)" d="M 91.00484202916059,-368.1886193686116 L 121.1859759885716,-336.2217759999999" stroke-opacity="1" stroke-width="1" stroke-linecap="butt" stroke-linejoin="miter" stroke-miterlimit="1.45"/></g><g><path fill="none" stroke="rgb(0,0,0)" d="M 167.22643806529769,-370.2306808646345 L 150.1254945806814,-336.2217759999999" stroke-opacity="1" stroke-width="1" stroke-linecap="butt" stroke-linejoin="miter" stroke-miterlimit="1.45"/></g><g><path fill="none" stroke="rgb(0,0,0)" d="M 232.01288088437605,-355.4588521786509 L 180.0687499999999,-333.2917404670058" stroke-opacity="1" stroke-width="1" stroke-linecap="butt" stroke-linejoin="miter" stroke-miterlimit="1.45"/></g><g><path fill="none" stroke="rgb(0,0,0)" d="M 180.0687499999999,-316.2217759999999 L 349.84329696000077,-316.2217759999998" stroke-opacity="1" stroke-width="1" stroke-linecap="butt" stroke-linejoin="miter" stroke-miterlimit="1.45"/><g/><use transform="matrix(1 6.696341692986571e-16 -6.696341692986571e-16 1 180.0687499999999 -316.2217759999999)" xlink:href="#ygc159_0"/></g><g><path fill="none" stroke="rgb(0,0,0)" d="M 34.183899066475576,-251.4742858042479 L 107.36173676646727,-296.2217759999999" stroke-opacity="1" stroke-width="1" stroke-linecap="butt" stroke-linejoin="miter" stroke-miterlimit="10"/></g><g><path fill="none" stroke="rgb(0,0,0)" d="M 112.74611350122804,-255.00206235824982 L 139.45171736691177,-296.2217759999999" stroke-opacity="1" stroke-width="1" stroke-linecap="butt" stroke-linejoin="miter" stroke-miterlimit="10"/></g><g><path fill="none" stroke="rgb(0,0,0)" d="M 186.1236140337399,-254.73569412734628 L 155.04933182634758,-296.2217759999999" stroke-opacity="1" stroke-width="1" stroke-linecap="butt" stroke-linejoin="miter" stroke-miterlimit="10"/></g><g><path fill="none" stroke="rgb(0,0,0)" d="M 245.41134317538496,-286.04261611795465 L 180.0687499999999,-304.762342935997" stroke-opacity="1" stroke-width="1" stroke-linecap="butt" stroke-linejoin="miter" stroke-miterlimit="10"/></g><g><path fill="none" stroke="rgb(0,0,0)" d="M 23.97904096000093,-316.2217759999998 L 100.06874999999991,-316.2217759999999" stroke-opacity="1" stroke-width="0.75" stroke-linecap="butt" stroke-linejoin="miter" stroke-miterlimit="10"/></g><g><path fill="none" stroke="rgb(0,0,0)" d="M 23.749100300261503,-313.9408129045896 L 100.06874999999992,-314.06500631238896" stroke-opacity="1" stroke-width="0.75" stroke-linecap="butt" stroke-linejoin="miter" stroke-miterlimit="10"/></g><g><path fill="none" stroke="rgb(0,0,0)" d="M 564.2308169600003,-316.2217759999998 L 439.84329696000077,-316.2217759999998" stroke-opacity="1" stroke-width="1" stroke-linecap="butt" stroke-linejoin="miter" stroke-miterlimit="1.45"/><g/><use transform="matrix(-1 0 0 -1 564.2308169600003 -316.2217759999998)" xlink:href="#ygc159_1"/></g><g><path fill="none" stroke="rgb(0,0,0)" d="M 565.5695821306734,-382.52332971445094 L 592.5685759827122,-336.2217759999998" stroke-opacity="1" stroke-width="1" stroke-linecap="butt" stroke-linejoin="miter" stroke-miterlimit="1.45"/></g><g><path fill="none" stroke="rgb(0,0,0)" d="M 604.2308169600003,-296.2217759999998 L 604.2308169600003,-236.2782239999999" stroke-opacity="1" stroke-width="1" stroke-linecap="butt" stroke-linejoin="miter" stroke-miterlimit="1.45"/><g/><use transform="matrix(0 1 -1 0 604.2308169600003 -296.2217759999998)" xlink:href="#ygc159_2"/></g><g><path fill="none" stroke="rgb(0,0,0)" d="M 665.9862738928243,-381.6980631219584 L 605.4975929268282,-336.2217759999998" stroke-opacity="1" stroke-width="0.75" stroke-linecap="butt" stroke-linejoin="miter" stroke-miterlimit="10"/></g><g><path fill="none" stroke="rgb(0,0,0)" d="M 604.2308169600003,-126.27822399999991 L 604.2308169600003,-180.2782239999999" stroke-opacity="1" stroke-width="1" stroke-linecap="butt" stroke-linejoin="miter" stroke-miterlimit="1.45"/><g/><use transform="matrix(0 -1 1 0 604.2308169600003 -126.27822399999991)" xlink:href="#ygc159_3"/></g><g><path fill="none" stroke="rgb(0,0,0)" d="M 680.3107805054707,-140.0516198596184 L 644.2308169600003,-124.03501266587949" stroke-opacity="1" stroke-width="1" stroke-linecap="butt" stroke-linejoin="miter" stroke-miterlimit="1.45"/></g><g><path fill="none" stroke="rgb(0,0,0)" d="M 464.4865059435656,-46.20998666380727 L 564.2308169600003,-89.08446866233088" stroke-opacity="1" stroke-width="1" stroke-linecap="butt" stroke-linejoin="miter" stroke-miterlimit="1.45"/></g><g><path fill="none" stroke="rgb(0,0,0)" d="M 458.0692269047545,-104.47097175697712 L 564.2308169600003,-105.78363380230442" stroke-opacity="1" stroke-width="1" stroke-linecap="butt" stroke-linejoin="miter" stroke-miterlimit="1.45"/></g><g><path fill="none" stroke="rgb(0,0,0)" d="M 564.2308169600003,-121.64770564541637 L 457.6841037053104,-162.58689948910154" stroke-opacity="1" stroke-width="1" stroke-linecap="butt" stroke-linejoin="miter" stroke-miterlimit="1.45"/></g><g><path fill="none" stroke="rgb(255,255,255)" d="M 591.932175421618,-86.27822399999991 L 498.90341990851226,65.0047534292975" stroke-opacity="1" stroke-width="1" stroke-linecap="butt" stroke-linejoin="miter" stroke-miterlimit="1.45"/><g/><use transform="matrix(-0.5238177959925119 0.8518303332246083 -0.8518303332246083 -0.5238177959925119 591.932175421618 -86.27822399999991)" xlink:href="#ygc159_4"/></g><g><path fill="none" stroke="rgb(0,0,0)" d="M 591.932175421618,-86.27822399999991 L 498.90341990851226,65.0047534292975" stroke-opacity="1" stroke-width="1" stroke-linecap="butt" stroke-linejoin="miter" stroke-miterlimit="1.45"/><g/><use transform="matrix(-0.5238177959925119 0.8518303332246083 -0.8518303332246083 -0.5238177959925119 591.932175421618 -86.27822399999991)" xlink:href="#ygc159_5"/></g><g><path fill="none" stroke="rgb(0,0,0)" d="M 644.2308169600003,-99.16152155148555 L 812.6366112516184,-69.19917333700641" stroke-opacity="1" stroke-width="1" stroke-linecap="butt" stroke-linejoin="miter" stroke-miterlimit="10"/><g/><use transform="matrix(0.9845387821385917 0.1751667390375767 -0.1751667390375767 0.9845387821385917 644.2308169600003 -99.16152155148555)" xlink:href="#ygc159_6"/></g><g><path fill="none" stroke="rgb(0,0,0)" d="M 605.5785932647547,-86.27822399999991 L 615.6514448785621,63.19541755721096" stroke-opacity="1" stroke-width="1" stroke-linecap="butt" stroke-linejoin="miter" stroke-miterlimit="10"/><g/><use transform="matrix(0.06723631962230468 0.9977370782544104 -0.9977370782544104 0.06723631962230468 605.5785932647547 -86.27822399999991)" xlink:href="#ygc159_7"/></g><g><path fill="none" stroke="rgb(0,0,0)" d="M 823.9936769862557,26.945000000000228 L 814.0467240608498,-14.076576862750372" stroke-opacity="1" stroke-width="1" stroke-linecap="butt" stroke-linejoin="miter" stroke-miterlimit="10"/><g/><use transform="matrix(-0.2356521214782954 -0.9718374749117151 0.9718374749117151 -0.2356521214782954 823.9936769862557 26.945000000000228)" xlink:href="#ygc159_8"/></g><g><path fill="none" stroke="rgb(0,0,0)" d="M 868.8432969600008,50.19301337413013 L 905.5627904402679,53.174648522009726" stroke-opacity="1" stroke-width="1" stroke-linecap="butt" stroke-linejoin="miter" stroke-miterlimit="10"/></g><g><path fill="none" stroke="rgb(0,0,0)" d="M 828.8432969600007,107.1917056000006 L 828.8432969600008,66.94500000000022" stroke-opacity="1" stroke-width="1" stroke-linecap="butt" stroke-linejoin="miter" stroke-miterlimit="10"/></g><g><path fill="none" stroke="rgb(0,0,0)" d="M 826.5307969600008,67.16375000000022 L 826.4377962946423,107.43420071581772" stroke-opacity="1" stroke-width="0.75" stroke-linecap="butt" stroke-linejoin="miter" stroke-miterlimit="10"/></g><g><path fill="none" stroke="rgb(0,0,0)" d="M 201.78123865208522,79.01637002855193 L 239.9709590399989,72.38778990190632" stroke-opacity="1" stroke-width="1" stroke-linecap="butt" stroke-linejoin="miter" stroke-miterlimit="1.45"/></g><g><path fill="none" stroke="rgb(0,0,0)" d="M 222.097521906185,21.898855646626004 L 253.3906782857835,45.44500000000022" stroke-opacity="1" stroke-width="1" stroke-linecap="butt" stroke-linejoin="miter" stroke-miterlimit="1.45"/></g><g><path fill="none" stroke="rgb(255,255,255)" d="M 319.9709590399989,65.44500000000022 L 409.61095903999876,65.44500000000022" stroke-opacity="1" stroke-width="1" stroke-linecap="butt" stroke-linejoin="miter" stroke-miterlimit="1.45"/><g/><use transform="matrix(1 0 0 1 319.9709590399989 65.44500000000022)" xlink:href="#ygc159_9"/></g><g><path fill="none" stroke="rgb(0,0,0)" d="M 319.9709590399989,65.44500000000022 L 409.61095903999876,65.44500000000022" stroke-opacity="1" stroke-width="1" stroke-linecap="butt" stroke-linejoin="miter" stroke-miterlimit="1.45"/><g/><use transform="matrix(1 0 0 1 319.9709590399989 65.44500000000022)" xlink:href="#ygc159_10"/></g><g><path fill="none" stroke="rgb(0,0,0)" d="M 1051.3198182090382,214.5399814088569 L 977.5585869600009,192.23435096035166" stroke-opacity="1" stroke-width="0.75" stroke-linecap="butt" stroke-linejoin="miter" stroke-miterlimit="10"/></g><g><path fill="none" stroke="rgb(0,0,0)" d="M 491.39442011237026,211.88822399999992 L 507.2812716916246,282.6320746678938" stroke-opacity="1" stroke-width="1" stroke-linecap="butt" stroke-linejoin="miter" stroke-miterlimit="10"/></g><g><path fill="none" stroke="rgb(0,0,0)" d="M 469.69930453096936,211.88822399999992 L 420.5412632726567,269.03630263591486" stroke-opacity="1" stroke-width="1" stroke-linecap="butt" stroke-linejoin="miter" stroke-miterlimit="10"/></g><g><path fill="none" stroke="rgb(0,0,0)" d="M 446.90304695999976,172.704190032455 L 394.80574870762837,147.71828155018474" stroke-opacity="1" stroke-width="1" stroke-linecap="butt" stroke-linejoin="miter" stroke-miterlimit="10"/></g><g><path fill="none" stroke="rgb(0,0,0)" d="M 446.90304695999976,191.88822399999984 L 384.497374999999,191.8882239999998" stroke-opacity="1" stroke-width="1" stroke-linecap="butt" stroke-linejoin="miter" stroke-miterlimit="10"/></g><g><path fill="none" stroke="rgb(0,0,0)" d="M 943.2237820562298,283.505769875259 L 906.8840206404102,299.22828817793044" stroke-opacity="1" stroke-width="1" stroke-linecap="butt" stroke-linejoin="miter" stroke-miterlimit="10"/></g><g><path fill="none" stroke="rgb(0,0,0)" d="M 953.8190611050655,287.01220026861546 L 889.3316550021067,339.05527965752793" stroke-opacity="1" stroke-width="1" stroke-linecap="butt" stroke-linejoin="miter" stroke-miterlimit="10"/></g><g><path fill="none" stroke="rgb(0,0,0)" d="M 978.0671699401829,289.4535438290641 L 987.7925400598158,362.7698673709366" stroke-opacity="1" stroke-width="1" stroke-linecap="butt" stroke-linejoin="miter" stroke-miterlimit="10"/></g><g><path fill="none" stroke="rgb(0,0,0)" d="M 999.6007094533414,286.3946202995264 L 1056.2590005466573,325.82879090047425" stroke-opacity="1" stroke-width="1" stroke-linecap="butt" stroke-linejoin="miter" stroke-miterlimit="10"/></g><g><path fill="none" stroke="rgb(0,0,0)" d="M 946.0277346130871,200.13822400000004 L 967.1183965446085,249.94409064783392" stroke-opacity="1" stroke-width="0.75" stroke-linecap="butt" stroke-linejoin="miter" stroke-miterlimit="10"/></g><g><path fill="none" stroke="rgb(0,0,0)" d="M -131.11737499999913,-273.9236404306783 L -12.016183098100932,-309.8828641339644" stroke-opacity="1" stroke-width="0.75" stroke-linecap="butt" stroke-linejoin="miter" stroke-miterlimit="10"/><use style="pointer-events: none;" transform="matrix(-0.9573184882050173 0.2890351399758514 -0.2890351399758514 -0.9573184882050173 -7.229590657075845 -311.32803983384366)" xlink:href="#ygc159_11"/></g><g><path fill="none" stroke="rgb(0,0,0)" d="M -131.11737499999913,-352.9100948715034 L -12.250917293046646,-321.7814576854964" stroke-opacity="1" stroke-width="0.75" stroke-linecap="butt" stroke-linejoin="miter" stroke-miterlimit="10"/><use style="pointer-events: none;" transform="matrix(-0.9673783150107472 -0.2533361317439096 0.2533361317439096 -0.9673783150107472 -7.41402571799291 -320.51477702677687)" xlink:href="#ygc159_12"/></g><g><path fill="none" stroke="rgb(0,0,0)" d="M -225.8815772389098,-192.23310800876106 L -172.14882563089242,-241.8467759999998" stroke-opacity="1" stroke-width="1" stroke-linecap="butt" stroke-linejoin="miter" stroke-miterlimit="1.45"/></g><g><path fill="none" stroke="rgb(0,0,0)" d="M -131.80718738810947,-191.7494925412632 L -170.3840053618643,-241.8467759999998" stroke-opacity="1" stroke-width="0.75" stroke-linecap="butt" stroke-linejoin="miter" stroke-miterlimit="10"/></g><g><path fill="none" stroke="rgb(0,0,0)" d="M -171.11737499999913,-436.7252575999998 L -171.11737499999913,-383.3852576" stroke-opacity="1" stroke-width="0.75" stroke-linecap="butt" stroke-linejoin="miter" stroke-miterlimit="10"/></g><g><path fill="none" stroke="rgb(0,0,0)" d="M 511.4330765869092,171.8882239999998 L 599.1401692315511,100.37824706264814" stroke-opacity="1" stroke-width="1" stroke-linecap="butt" stroke-linejoin="miter" stroke-miterlimit="10"/><g/><use transform="matrix(0.7750404872252957 -0.6319115785943284 0.6319115785943284 0.7750404872252957 511.4330765869092 171.8882239999998)" xlink:href="#ygc159_13"/></g><g><path fill="none" stroke="rgb(0,0,0)" d="M 900.035956437301,160.13822400000004 L 848.198467118212,132.5082371909839" stroke-opacity="1" stroke-width="0.75" stroke-linecap="butt" stroke-linejoin="miter" stroke-miterlimit="10"/><use style="pointer-events: none;" transform="matrix(0.882470778205542 0.4703672242124286 -0.4703672242124286 0.882470778205542 843.7861132271843 130.15640106992174)" xlink:href="#ygc159_14"/></g><g><path fill="none" stroke="rgb(0,0,0)" d="M 764.675788445984,160.1382239999998 L 809.956117703263,133.3609517151638" stroke-opacity="1" stroke-width="0.75" stroke-linecap="butt" stroke-linejoin="miter" stroke-miterlimit="10"/><use style="pointer-events: none;" transform="matrix(-0.8607540188414075 0.5090211381154678 -0.5090211381154678 -0.8607540188414075 814.25988779747 130.81584602458645)" xlink:href="#ygc159_15"/></g><g><path fill="none" stroke="rgb(0,0,0)" d="M 705.6750046130387,232.58538471503635 L 730.1377913570286,200.1382239999998" stroke-opacity="1" stroke-width="0.75" stroke-linecap="butt" stroke-linejoin="miter" stroke-miterlimit="10"/></g><g><path fill="none" stroke="rgb(0,0,0)" d="M 669.1157481888805,267.7790572989705 L 632.7098193400852,294.5410771985344" stroke-opacity="1" stroke-width="0.75" stroke-linecap="butt" stroke-linejoin="miter" stroke-miterlimit="10"/></g><g><path fill="none" stroke="rgb(0,0,0)" d="M 706.3888963762561,269.7970019035491 L 727.2142955837428,295.9295572964509" stroke-opacity="1" stroke-width="0.75" stroke-linecap="butt" stroke-linejoin="miter" stroke-miterlimit="10"/></g><g><path d="M 100.06874999999991,-336.2217759999999 L 180.0687499999999,-336.2217759999999 L 180.0687499999999,-296.2217759999999 L 100.06874999999991,-296.2217759999999 Z" fill="url(#ygc159_16)" stroke="rgb(0,0,0)" stroke-opacity="1" stroke-width="1" stroke-linecap="butt" stroke-linejoin="miter" stroke-miterlimit="1.45"/></g><g transform="translate(100.06874999999991 -336.2217759999999)"><text font-family="'Arial'" font-size="12px" font-style="normal" font-weight="normal" text-decoration="none" text-anchor="middle" fill="rgb(0,0,0)" fill-opacity="1" dy="0.9166666666666666em" transform="translate(40 13)">User</text></g><g><path d="M 176.94920416000082,-369.56649279999993 C 154.85781416676906,-369.56649279999993 136.94920416000082,-378.520797803384 136.94920416000082,-389.56649279999993 C 136.94920416000082,-400.61218779661584 154.85781416676906,-409.56649279999993 176.94920416000082,-409.56649279999993 C 199.04059415323258,-409.56649279999993 216.94920416000082,-400.61218779661584 216.94920416000082,-389.56649279999993 C 216.94920416000082,-378.520797803384 199.04059415323258,-369.56649279999993 176.94920416000082,-369.56649279999993 Z" fill="url(#ygc159_17)" stroke="rgb(0,0,0)" stroke-opacity="1" stroke-width="1" stroke-linecap="butt" stroke-linejoin="miter" stroke-miterlimit="1.45"/></g><g transform="translate(136.94920416000082 -409.56649279999993)"><text font-family="'Arial'" font-size="12px" font-style="normal" font-weight="bold" text-decoration="underline" text-anchor="middle" fill="rgb(0,0,0)" fill-opacity="1" dy="0.9166666666666666em" transform="translate(40 13)">UserID</text></g><g><path d="M 262.3032905600005,-348.38525759999993 C 240.21190056676875,-348.38525759999993 222.3032905600005,-357.339562603384 222.3032905600005,-368.38525759999993 C 222.3032905600005,-379.43095259661584 240.21190056676875,-388.38525759999993 262.3032905600005,-388.38525759999993 C 284.39468055323226,-388.38525759999993 302.3032905600005,-379.43095259661584 302.3032905600005,-368.38525759999993 C 302.3032905600005,-357.339562603384 284.39468055323226,-348.38525759999993 262.3032905600005,-348.38525759999993 Z" fill="url(#ygc159_18)" stroke="rgb(0,0,0)" stroke-opacity="1" stroke-width="1" stroke-linecap="butt" stroke-linejoin="miter" stroke-miterlimit="1.45"/></g><g transform="translate(222.3032905600005 -388.38525759999993)"><text font-family="'Arial'" font-size="12px" font-style="normal" font-weight="normal" text-decoration="none" text-anchor="middle" fill="rgb(0,0,0)" fill-opacity="1" xml:space="preserve" transform="translate(40 13)"><tspan class="yfiles-label-p" dy="11px" x="0">Email</tspan></text></g><g><path d="M 73.97904096000093,-366.2217759999998 C 51.88765096676917,-366.2217759999998 33.97904096000093,-375.1760810033839 33.97904096000093,-386.2217759999998 C 33.97904096000093,-397.2674709966157 51.88765096676917,-406.2217759999998 73.97904096000093,-406.2217759999998 C 96.07043095323269,-406.2217759999998 113.97904096000093,-397.2674709966157 113.97904096000093,-386.2217759999998 C 113.97904096000093,-375.1760810033839 96.07043095323269,-366.2217759999998 73.97904096000093,-366.2217759999998 Z" fill="url(#ygc159_19)" stroke="rgb(0,0,0)" stroke-opacity="1" stroke-width="1" stroke-linecap="butt" stroke-linejoin="miter" stroke-miterlimit="1.45"/></g><g transform="translate(33.97904096000093 -406.2217759999998)"><text font-family="'Arial'" font-size="12px" font-style="normal" font-weight="normal" text-decoration="none" text-anchor="middle" fill="rgb(0,0,0)" fill-opacity="1" dy="0.9166666666666666em" transform="translate(40 13)">Password</text></g><g><path d="M 394.84329696000077,-344.2217759999998 L 439.84329696000077,-316.2217759999998 L 394.84329696000077,-288.2217759999998 L 349.84329696000077,-316.2217759999998 Z" fill="url(#ygc159_20)" stroke="rgb(0,0,0)" stroke-opacity="1" stroke-width="1" stroke-linecap="butt" stroke-linejoin="miter" stroke-miterlimit="1.45"/></g><g transform="translate(349.84329696000077 -344.2217759999998)"><text font-family="'Arial'" font-size="12px" font-style="normal" font-weight="normal" text-decoration="none" text-anchor="middle" fill="rgb(0,0,0)" fill-opacity="1" dy="0.9166666666666666em" transform="translate(45 21)">owns</text></g><g><path d="M 564.2308169600003,-336.2217759999998 L 644.2308169600003,-336.2217759999998 L 644.2308169600003,-296.2217759999998 L 564.2308169600003,-296.2217759999998 Z" fill="url(#ygc159_21)" stroke="rgb(0,0,0)" stroke-opacity="1" stroke-width="1" stroke-linecap="butt" stroke-linejoin="miter" stroke-miterlimit="1.45"/></g><g transform="translate(564.2308169600003 -336.2217759999998)"><text font-family="'Arial'" font-size="12px" font-style="normal" font-weight="normal" text-decoration="none" text-anchor="middle" fill="rgb(0,0,0)" fill-opacity="1" dy="0.9166666666666666em" transform="translate(40 13)">Account</text></g><g><path d="M 554.4234569600005,-381.6382239999999 C 532.3320669667687,-381.6382239999999 514.4234569600005,-390.592529003384 514.4234569600005,-401.6382239999999 C 514.4234569600005,-412.68391899661583 532.3320669667687,-421.6382239999999 554.4234569600005,-421.6382239999999 C 576.5148469532323,-421.6382239999999 594.4234569600005,-412.68391899661583 594.4234569600005,-401.6382239999999 C 594.4234569600005,-390.592529003384 576.5148469532323,-381.6382239999999 554.4234569600005,-381.6382239999999 Z" fill="url(#ygc159_22)" stroke="rgb(0,0,0)" stroke-opacity="1" stroke-width="1" stroke-linecap="butt" stroke-linejoin="miter" stroke-miterlimit="1.45"/></g><g transform="translate(514.4234569600005 -421.6382239999999)"><text font-family="'Arial'" font-size="12px" font-style="normal" font-weight="bold" text-decoration="underline" text-anchor="middle" fill="rgb(0,0,0)" fill-opacity="1" dy="0.9166666666666666em" transform="translate(40 13)">AccountID</text></g><g><path d="M 564.2308169600003,-126.27822399999991 L 644.2308169600003,-126.27822399999991 L 644.2308169600003,-86.27822399999991 L 564.2308169600003,-86.27822399999991 Z" fill="url(#ygc159_23)" stroke="rgb(0,0,0)" stroke-opacity="1" stroke-width="1" stroke-linecap="butt" stroke-linejoin="miter" stroke-miterlimit="1.45"/></g><g transform="translate(564.2308169600003 -126.27822399999991)"><text font-family="'Arial'" font-size="12px" font-style="normal" font-weight="normal" text-decoration="none" text-anchor="middle" fill="rgb(0,0,0)" fill-opacity="1" transform="translate(40 4)"><tspan dy="0.9166666666666666em" x="0">Transaction </tspan><tspan dy="1.5em" x="0">("Cashflow")</tspan></text></g><g><path d="M 604.2308169600003,-236.2782239999999 L 649.2308169600003,-208.2782239999999 L 604.2308169600003,-180.2782239999999 L 559.2308169600003,-208.2782239999999 Z" fill="url(#ygc159_24)" stroke="rgb(0,0,0)" stroke-opacity="1" stroke-width="1" stroke-linecap="butt" stroke-linejoin="miter" stroke-miterlimit="1.45"/></g><g transform="translate(559.2308169600003 -236.2782239999999)"><text font-family="'Arial'" font-size="12px" font-style="normal" font-weight="normal" text-decoration="none" text-anchor="middle" fill="rgb(0,0,0)" fill-opacity="1" dy="0.9166666666666666em" transform="translate(45 21)">manages</text></g><g><path d="M 710.1058169600003,-133.2782239999999 C 688.0144269667685,-133.2782239999999 670.1058169600003,-142.23252900338403 670.1058169600003,-153.2782239999999 C 670.1058169600003,-164.3239189966158 688.0144269667685,-173.2782239999999 710.1058169600003,-173.2782239999999 C 732.1972069532321,-173.2782239999999 750.1058169600003,-164.3239189966158 750.1058169600003,-153.2782239999999 C 750.1058169600003,-142.23252900338403 732.1972069532321,-133.2782239999999 710.1058169600003,-133.2782239999999 Z" fill="url(#ygc159_25)" stroke="rgb(0,0,0)" stroke-opacity="1" stroke-width="1" stroke-linecap="butt" stroke-linejoin="miter" stroke-miterlimit="1.45"/></g><g transform="translate(670.1058169600003 -173.2782239999999)"><text font-family="'Arial'" font-size="12px" font-style="normal" font-weight="normal" text-decoration="none" text-anchor="middle" fill="rgb(0,0,0)" fill-opacity="1" transform="translate(40 4)"><tspan dy="0.9166666666666666em" x="0">Type</tspan><tspan dy="1.5em" x="0">(+/-)</tspan></text></g><g><path d="M 434.28659392000145,-13.228739200000007 C 412.1952039267697,-13.228739200000007 394.28659392000145,-22.183044203384128 394.28659392000145,-33.22873920000001 C 394.28659392000145,-44.274434196615886 412.1952039267697,-53.22873920000001 434.28659392000145,-53.22873920000001 C 456.3779839132332,-53.22873920000001 474.28659392000145,-44.274434196615886 474.28659392000145,-33.22873920000001 C 474.28659392000145,-22.183044203384128 456.3779839132332,-13.228739200000007 434.28659392000145,-13.228739200000007 Z" fill="url(#ygc159_26)" stroke="rgb(0,0,0)" stroke-opacity="1" stroke-width="1" stroke-linecap="butt" stroke-linejoin="miter" stroke-miterlimit="1.45"/></g><g transform="translate(394.28659392000145 -53.22873920000001)"><text font-family="'Arial'" font-size="12px" font-style="normal" font-weight="normal" text-decoration="none" text-anchor="middle" fill="rgb(0,0,0)" fill-opacity="1" dy="0.9166666666666666em" transform="translate(40 13)">Overall value</text></g><g><path d="M 788.8432969600008,26.94500000000022 L 868.8432969600008,26.94500000000022 L 868.8432969600008,66.94500000000022 L 788.8432969600008,66.94500000000022 Z" fill="url(#ygc159_27)" stroke="rgb(0,0,0)" stroke-opacity="1" stroke-width="1" stroke-linecap="butt" stroke-linejoin="miter" stroke-miterlimit="1.45"/></g><g transform="translate(788.8432969600008 26.94500000000022)"><text font-family="'Arial'" font-size="12px" font-style="normal" font-weight="normal" text-decoration="none" text-anchor="middle" fill="rgb(0,0,0)" fill-opacity="1" dy="0.9166666666666666em" transform="translate(40 13)">Source</text></g><g><path d="M 813.8432969600008,-69.9499999999999 L 858.8432969600008,-41.9499999999999 L 813.8432969600008,-13.949999999999903 L 768.8432969600008,-41.9499999999999 Z" fill="url(#ygc159_28)" stroke="rgb(0,0,0)" stroke-opacity="1" stroke-width="1" stroke-linecap="butt" stroke-linejoin="miter" stroke-miterlimit="1.45"/></g><g transform="translate(768.8432969600008 -69.9499999999999)"><text font-family="'Arial'" font-size="12px" font-style="normal" font-weight="normal" text-decoration="none" text-anchor="middle" fill="rgb(0,0,0)" fill-opacity="1" dy="0.9166666666666666em" transform="translate(45 21)">happened at</text></g><g><path d="M 418.1191139200009,-83.97699839999996 C 396.02772392676917,-83.97699839999996 378.1191139200009,-92.93130340338408 378.1191139200009,-103.97699839999996 C 378.1191139200009,-115.02269339661584 396.02772392676917,-123.97699839999996 418.1191139200009,-123.97699839999996 C 440.2105039132327,-123.97699839999996 458.1191139200009,-115.02269339661584 458.1191139200009,-103.97699839999996 C 458.1191139200009,-92.93130340338408 440.2105039132327,-83.97699839999996 418.1191139200009,-83.97699839999996 Z" fill="url(#ygc159_29)" stroke="rgb(0,0,0)" stroke-opacity="1" stroke-width="1" stroke-linecap="butt" stroke-linejoin="miter" stroke-miterlimit="1.45"/></g><g transform="translate(378.1191139200009 -123.97699839999996)"><text font-family="'Arial'" font-size="12px" font-style="normal" font-weight="normal" text-decoration="none" text-anchor="middle" fill="rgb(0,0,0)" fill-opacity="1" dy="0.9166666666666666em" transform="translate(40 13)">Timestamp</text></g><g><path d="M 239.9709590399989,45.44500000000022 L 319.9709590399989,45.44500000000022 L 319.9709590399989,85.44500000000022 L 239.9709590399989,85.44500000000022 Z" fill="url(#ygc159_30)" stroke="rgb(0,0,0)" stroke-opacity="1" stroke-width="1" stroke-linecap="butt" stroke-linejoin="miter" stroke-miterlimit="1.45"/></g><g transform="translate(239.9709590399989 45.44500000000022)"><text font-family="'Arial'" font-size="12px" font-style="normal" font-weight="normal" text-decoration="none" text-anchor="middle" fill="rgb(0,0,0)" fill-opacity="1" dy="0.9166666666666666em" transform="translate(40 13)">Category</text></g><g><path d="M 426.09329696000077,-154.7252575999999 C 404.001906966769,-154.7252575999999 386.09329696000077,-163.67956260338403 386.09329696000077,-174.7252575999999 C 386.09329696000077,-185.77095259661579 404.001906966769,-194.7252575999999 426.09329696000077,-194.7252575999999 C 448.18468695323253,-194.7252575999999 466.09329696000077,-185.77095259661579 466.09329696000077,-174.7252575999999 C 466.09329696000077,-163.67956260338403 448.18468695323253,-154.7252575999999 426.09329696000077,-154.7252575999999 Z" fill="url(#ygc159_31)" stroke="rgb(0,0,0)" stroke-opacity="1" stroke-width="1" stroke-linecap="butt" stroke-linejoin="miter" stroke-miterlimit="1.45"/></g><g transform="translate(386.09329696000077 -194.7252575999999)"><text font-family="'Arial'" font-size="12px" font-style="normal" font-weight="bold" text-decoration="underline" text-anchor="middle" fill="rgb(0,0,0)" fill-opacity="1" dy="0.9166666666666666em" transform="translate(40 13)">CashflowID</text></g><g><path d="M 1085.4298549999994,244.85496480000023 C 1063.3384650067676,244.85496480000023 1045.4298549999994,235.9006597966161 1045.4298549999994,224.85496480000023 C 1045.4298549999994,213.80926980338435 1063.3384650067676,204.85496480000023 1085.4298549999994,204.85496480000023 C 1107.5212449932312,204.85496480000023 1125.4298549999994,213.80926980338435 1125.4298549999994,224.85496480000023 C 1125.4298549999994,235.9006597966161 1107.5212449932312,244.85496480000023 1085.4298549999994,244.85496480000023 Z" fill="url(#ygc159_32)" stroke="rgb(0,0,0)" stroke-opacity="1" stroke-width="1" stroke-linecap="butt" stroke-linejoin="miter" stroke-miterlimit="1.45"/></g><g transform="translate(1045.4298549999994 204.85496480000023)"><text font-family="'Arial'" font-size="12px" font-style="normal" font-weight="normal" text-decoration="none" text-anchor="middle" fill="rgb(0,0,0)" fill-opacity="1" dy="0.9166666666666666em" transform="translate(40 13)">Name</text></g><g><path d="M 511.72237499999915,322.40822399999973 C 489.6309850067674,322.40822399999973 471.72237499999915,313.45391899661564 471.72237499999915,302.40822399999973 C 471.72237499999915,291.3625290033838 489.6309850067674,282.40822399999973 511.72237499999915,282.40822399999973 C 533.813764993231,282.40822399999973 551.7223749999991,291.3625290033838 551.7223749999991,302.40822399999973 C 551.7223749999991,313.45391899661564 533.813764993231,322.40822399999973 511.72237499999915,322.40822399999973 Z" fill="url(#ygc159_33)" stroke="rgb(0,0,0)" stroke-opacity="1" stroke-width="1" stroke-linecap="butt" stroke-linejoin="miter" stroke-miterlimit="1.45"/></g><g transform="translate(471.72237499999915 282.40822399999973)"><text font-family="'Arial'" font-size="12px" font-style="normal" font-weight="bold" text-decoration="underline" text-anchor="middle" fill="rgb(0,0,0)" fill-opacity="1" dy="0.9166666666666666em" transform="translate(40 13)">ItemID</text></g><g><path d="M 402.32237499999974,313.4164479999998 C 377.46956125761403,313.4164479999998 357.32237499999974,303.0294541960742 357.32237499999974,290.2164479999998 C 357.32237499999974,277.4034418039254 377.46956125761403,267.0164479999998 402.32237499999974,267.0164479999998 C 427.17518874238544,267.0164479999998 447.32237499999974,277.4034418039254 447.32237499999974,290.2164479999998 C 447.32237499999974,303.0294541960742 427.17518874238544,313.4164479999998 402.32237499999974,313.4164479999998 Z" fill="url(#ygc159_34)" stroke="rgb(0,0,0)" stroke-opacity="1" stroke-width="1" stroke-linecap="butt" stroke-linejoin="miter" stroke-miterlimit="1.45"/></g><g transform="translate(357.32237499999974 267.0164479999998)"><text font-family="'Arial'" font-size="12px" font-style="normal" font-weight="normal" text-decoration="none" text-anchor="middle" fill="rgb(0,0,0)" fill-opacity="1" transform="translate(45 7.199999999999989)"><tspan dy="0.9166666666666666em" x="0">Value</tspan><tspan dy="1.5em" x="0">(summed up)</tspan></text></g><g><path d="M 365.9899999999998,153.89822400000014 C 343.898610006768,153.89822400000014 325.9899999999998,144.94391899661602 325.9899999999998,133.89822400000014 C 325.9899999999998,122.85252900338426 343.898610006768,113.89822400000014 365.9899999999998,113.89822400000014 C 388.08138999323154,113.89822400000014 405.9899999999998,122.85252900338426 405.9899999999998,133.89822400000014 C 405.9899999999998,144.94391899661602 388.08138999323154,153.89822400000014 365.9899999999998,153.89822400000014 Z" fill="url(#ygc159_35)" stroke="rgb(0,0,0)" stroke-opacity="1" stroke-width="1" stroke-linecap="butt" stroke-linejoin="miter" stroke-miterlimit="1.45"/></g><g transform="translate(325.9899999999998 113.89822400000014)"><text font-family="'Arial'" font-size="12px" font-style="normal" font-weight="normal" text-decoration="none" text-anchor="middle" fill="rgb(0,0,0)" fill-opacity="1" dy="0.9166666666666666em" transform="translate(40 13)">Amount</text></g><g><path d="M 164.0233340399982,105.57000000000022 C 141.93194404676643,105.57000000000022 124.02333403999819,96.6156949966161 124.02333403999819,85.57000000000022 C 124.02333403999819,74.52430500338434 141.93194404676643,65.57000000000022 164.0233340399982,65.57000000000022 C 186.11472403322995,65.57000000000022 204.0233340399982,74.52430500338434 204.0233340399982,85.57000000000022 C 204.0233340399982,96.6156949966161 186.11472403322995,105.57000000000022 164.0233340399982,105.57000000000022 Z" fill="url(#ygc159_36)" stroke="rgb(0,0,0)" stroke-opacity="1" stroke-width="1" stroke-linecap="butt" stroke-linejoin="miter" stroke-miterlimit="1.45"/></g><g transform="translate(124.02333403999819 65.57000000000022)"><text font-family="'Arial'" font-size="12px" font-style="normal" font-weight="normal" text-decoration="none" text-anchor="middle" fill="rgb(0,0,0)" fill-opacity="1" dy="0.9166666666666666em" transform="translate(40 13)">Name</text></g><g><path d="M 199.9709590399989,25.250000000000057 C 177.87956904676713,25.250000000000057 159.9709590399989,16.295694996615936 159.9709590399989,5.250000000000057 C 159.9709590399989,-5.795694996615824 177.87956904676713,-14.749999999999943 199.9709590399989,-14.749999999999943 C 222.06234903323065,-14.749999999999943 239.9709590399989,-5.795694996615824 239.9709590399989,5.250000000000057 C 239.9709590399989,16.295694996615936 222.06234903323065,25.250000000000057 199.9709590399989,25.250000000000057 Z" fill="url(#ygc159_37)" stroke="rgb(0,0,0)" stroke-opacity="1" stroke-width="1" stroke-linecap="butt" stroke-linejoin="miter" stroke-miterlimit="1.45"/></g><g transform="translate(159.9709590399989 -14.749999999999943)"><text font-family="'Arial'" font-size="12px" font-style="normal" font-weight="bold" text-decoration="underline" text-anchor="middle" fill="rgb(0,0,0)" fill-opacity="1" dy="0.9166666666666666em" transform="translate(40 13)">CategoryID</text></g><g><path d="M 344.497374999999,211.8882239999998 C 322.40598500676725,211.8882239999998 304.497374999999,202.9339189966157 304.497374999999,191.8882239999998 C 304.497374999999,180.84252900338393 322.40598500676725,171.8882239999998 344.497374999999,171.8882239999998 C 366.58876499323077,171.8882239999998 384.497374999999,180.84252900338393 384.497374999999,191.8882239999998 C 384.497374999999,202.9339189966157 366.58876499323077,211.8882239999998 344.497374999999,211.8882239999998 Z" fill="url(#ygc159_38)" stroke="rgb(0,0,0)" stroke-opacity="1" stroke-width="1" stroke-linecap="butt" stroke-linejoin="miter" stroke-miterlimit="1.45"/></g><g transform="translate(304.497374999999 171.8882239999998)"><text font-family="'Arial'" font-size="12px" font-style="normal" font-weight="normal" text-decoration="none" text-anchor="middle" fill="rgb(0,0,0)" fill-opacity="1" dy="0.9166666666666666em" transform="translate(40 13)">Name</text></g><g><path d="M 454.61095903999876,37.44500000000022 L 499.61095903999876,65.44500000000022 L 454.61095903999876,93.44500000000022 L 409.61095903999876,65.44500000000022 Z" fill="url(#ygc159_39)" stroke="rgb(0,0,0)" stroke-opacity="1" stroke-width="1" stroke-linecap="butt" stroke-linejoin="miter" stroke-miterlimit="1.45"/></g><g transform="translate(409.61095903999876 37.44500000000022)"><text font-family="'Arial'" font-size="12px" font-style="normal" font-weight="normal" text-decoration="none" text-anchor="middle" fill="rgb(0,0,0)" fill-opacity="1" dy="0.9166666666666666em" transform="translate(45 21)">has</text></g><g><path d="M 975.4298549999994,289.57170560000037 C 950.5770412576137,289.57170560000037 930.4298549999994,280.6174005966163 930.4298549999994,269.57170560000037 C 930.4298549999994,258.52601060338446 950.5770412576137,249.57170560000037 975.4298549999994,249.57170560000037 C 1000.2826687423851,249.57170560000037 1020.4298549999994,258.52601060338446 1020.4298549999994,269.57170560000037 C 1020.4298549999994,280.6174005966163 1000.2826687423851,289.57170560000037 975.4298549999994,289.57170560000037 Z" fill="url(#ygc159_32)" stroke="rgb(0,0,0)" stroke-opacity="1" stroke-width="1" stroke-linecap="butt" stroke-linejoin="miter" stroke-miterlimit="1.45"/></g><g transform="translate(930.4298549999994 249.57170560000037)"><text font-family="'Arial'" font-size="12px" font-style="normal" font-weight="normal" text-decoration="none" text-anchor="middle" fill="rgb(0,0,0)" fill-opacity="1" dy="0.9166666666666666em" transform="translate(45 13)">Address</text></g><g><path d="M 945.5548549999994,73.2532240000001 C 923.4634650067676,73.2532240000001 905.5548549999994,64.29891899661598 905.5548549999994,53.2532240000001 C 905.5548549999994,42.207529003384224 923.4634650067676,33.2532240000001 945.5548549999994,33.2532240000001 C 967.6462449932312,33.2532240000001 985.5548549999994,42.207529003384224 985.5548549999994,53.2532240000001 C 985.5548549999994,64.29891899661598 967.6462449932312,73.2532240000001 945.5548549999994,73.2532240000001 Z" fill="url(#ygc159_33)" stroke="rgb(0,0,0)" stroke-opacity="1" stroke-width="1" stroke-linecap="butt" stroke-linejoin="miter" stroke-miterlimit="1.45"/></g><g transform="translate(905.5548549999994 33.2532240000001)"><text font-family="'Arial'" font-size="12px" font-style="normal" font-weight="bold" text-decoration="underline" text-anchor="middle" fill="rgb(0,0,0)" fill-opacity="1" dy="0.9166666666666666em" transform="translate(40 13)">SourceID</text></g><g><path d="M 667.1734569600005,-381.6382239999999 C 645.0820669667687,-381.6382239999999 627.1734569600005,-390.592529003384 627.1734569600005,-401.6382239999999 C 627.1734569600005,-412.68391899661583 645.0820669667687,-421.6382239999999 667.1734569600005,-421.6382239999999 C 689.2648469532323,-421.6382239999999 707.1734569600005,-412.68391899661583 707.1734569600005,-401.6382239999999 C 707.1734569600005,-390.592529003384 689.2648469532323,-381.6382239999999 667.1734569600005,-381.6382239999999 Z" fill="url(#ygc159_22)" stroke="rgb(0,0,0)" stroke-opacity="1" stroke-width="1" stroke-linecap="butt" stroke-linejoin="miter" stroke-miterlimit="1.45"/></g><g transform="translate(627.1734569600005 -421.6382239999999)"><text font-family="'Arial'" font-size="12px" font-style="normal" font-weight="normal" text-decoration="none" text-anchor="middle" fill="rgb(0,0,0)" fill-opacity="1" xml:space="preserve" transform="translate(40 13)"><tspan class="yfiles-label-p" dy="11px" x="0">Name</tspan></text></g><g><path d="M 8.97904096000093,-301.2217759999998 C 0.6947697125390189,-301.2217759999998 -6.02095903999907,-307.9375047525379 -6.02095903999907,-316.2217759999998 C -6.02095903999907,-324.5060472474617 0.6947697125390189,-331.2217759999998 8.97904096000093,-331.2217759999998 C 17.26331220746284,-331.2217759999998 23.97904096000093,-324.5060472474617 23.97904096000093,-316.2217759999998 C 23.97904096000093,-307.9375047525379 17.26331220746284,-301.2217759999998 8.97904096000093,-301.2217759999998 Z" stroke="rgb(0,0,0)" stroke-opacity="1" stroke-width="1" stroke-linecap="butt" stroke-linejoin="miter" stroke-miterlimit="10" fill="rgb(210,222,238)" fill-opacity="1"/></g><g transform="translate(-16.02095903999907 -331.2217759999998)"><text font-family="'Arial'" font-size="12px" font-style="normal" font-weight="normal" text-decoration="none" text-anchor="middle" fill="rgb(0,0,0)" fill-opacity="1" dy="0.9166666666666666em" transform="translate(25 8)">d</text></g><g><path d="M -211.11737499999913,-281.8467759999998 L -131.11737499999913,-281.8467759999998 L -131.11737499999913,-241.8467759999998 L -211.11737499999913,-241.8467759999998 Z" fill="url(#ygc159_21)" stroke="rgb(0,0,0)" stroke-opacity="1" stroke-width="1" stroke-linecap="butt" stroke-linejoin="miter" stroke-miterlimit="1.45"/></g><g transform="translate(-211.11737499999913 -281.8467759999998)"><text font-family="'Arial'" font-size="12px" font-style="normal" font-weight="normal" text-decoration="none" text-anchor="middle" fill="rgb(0,0,0)" fill-opacity="1" dy="0.9166666666666666em" transform="translate(40 13)">Premium</text></g><g><path d="M -211.11737499999913,-383.3852576 L -131.11737499999913,-383.3852576 L -131.11737499999913,-343.3852576 L -211.11737499999913,-343.3852576 Z" fill="url(#ygc159_21)" stroke="rgb(0,0,0)" stroke-opacity="1" stroke-width="1" stroke-linecap="butt" stroke-linejoin="miter" stroke-miterlimit="1.45"/></g><g transform="translate(-211.11737499999913 -383.3852576)"><text font-family="'Arial'" font-size="12px" font-style="normal" font-weight="normal" text-decoration="none" text-anchor="middle" fill="rgb(0,0,0)" fill-opacity="1" dy="0.9166666666666666em" transform="translate(40 13)">Lite</text></g><g><path d="M -244.8429847560967,-154.7252575999999 C -266.93437474932847,-154.7252575999999 -284.8429847560967,-163.67956260338403 -284.8429847560967,-174.7252575999999 C -284.8429847560967,-185.77095259661579 -266.93437474932847,-194.7252575999999 -244.8429847560967,-194.7252575999999 C -222.75159476286495,-194.7252575999999 -204.8429847560967,-185.77095259661579 -204.8429847560967,-174.7252575999999 C -204.8429847560967,-163.67956260338403 -222.75159476286495,-154.7252575999999 -244.8429847560967,-154.7252575999999 Z" fill="url(#ygc159_22)" stroke="rgb(0,0,0)" stroke-opacity="1" stroke-width="1" stroke-linecap="butt" stroke-linejoin="miter" stroke-miterlimit="1.45"/></g><g transform="translate(-284.8429847560967 -194.7252575999999)"><text font-family="'Arial'" font-size="12px" font-style="normal" font-weight="normal" text-decoration="none" text-anchor="middle" fill="rgb(0,0,0)" fill-opacity="1" xml:space="preserve" transform="translate(40 13)"><tspan class="yfiles-label-p" dy="11px" x="0">Pay Method</tspan></text></g><g><path d="M -104.03048475609674,-154.7252575999999 C -133.61223666890865,-154.7252575999999 -157.59298475609674,-163.67956260338403 -157.59298475609674,-174.7252575999999 C -157.59298475609674,-185.77095259661579 -133.61223666890865,-194.7252575999999 -104.03048475609674,-194.7252575999999 C -74.44873284328483,-194.7252575999999 -50.46798475609674,-185.77095259661579 -50.46798475609674,-174.7252575999999 C -50.46798475609674,-163.67956260338403 -74.44873284328483,-154.7252575999999 -104.03048475609674,-154.7252575999999 Z" fill="url(#ygc159_22)" stroke="rgb(0,0,0)" stroke-opacity="1" stroke-width="1" stroke-linecap="butt" stroke-linejoin="miter" stroke-miterlimit="1.45"/></g><g transform="translate(-157.59298475609674 -194.7252575999999)"><text font-family="'Arial'" font-size="12px" font-style="normal" font-weight="normal" text-decoration="none" text-anchor="middle" fill="rgb(0,0,0)" fill-opacity="1" dy="0.9166666666666666em" transform="translate(53.5625 13)">Subscription Date</text></g><g><path d="M 861.9298549999994,319.6317056000001 C 837.0770412576137,319.6317056000001 816.9298549999994,310.677400596616 816.9298549999994,299.6317056000001 C 816.9298549999994,288.5860106033842 837.0770412576137,279.6317056000001 861.9298549999994,279.6317056000001 C 886.7826687423851,279.6317056000001 906.9298549999994,288.5860106033842 906.9298549999994,299.6317056000001 C 906.9298549999994,310.677400596616 886.7826687423851,319.6317056000001 861.9298549999994,319.6317056000001 Z" fill="url(#ygc159_32)" stroke="rgb(0,0,0)" stroke-opacity="1" stroke-width="1" stroke-linecap="butt" stroke-linejoin="miter" stroke-miterlimit="1.45"/></g><g transform="translate(816.9298549999994 279.6317056000001)"><text font-family="'Arial'" font-size="12px" font-style="normal" font-weight="normal" text-decoration="none" text-anchor="middle" fill="rgb(0,0,0)" fill-opacity="1" dy="0.9166666666666666em" transform="translate(45 13)">Street</text></g><g><path d="M 888.213614999999,379.0051872000009 C 863.3608012576133,379.0051872000009 843.213614999999,370.0508821966168 843.213614999999,359.0051872000009 C 843.213614999999,347.95949220338497 863.3608012576133,339.0051872000009 888.213614999999,339.0051872000009 C 913.0664287423847,339.0051872000009 933.213614999999,347.95949220338497 933.213614999999,359.0051872000009 C 933.213614999999,370.0508821966168 913.0664287423847,379.0051872000009 888.213614999999,379.0051872000009 Z" fill="url(#ygc159_32)" stroke="rgb(0,0,0)" stroke-opacity="1" stroke-width="1" stroke-linecap="butt" stroke-linejoin="miter" stroke-miterlimit="1.45"/></g><g transform="translate(843.213614999999 339.0051872000009)"><text font-family="'Arial'" font-size="12px" font-style="normal" font-weight="normal" text-decoration="none" text-anchor="middle" fill="rgb(0,0,0)" fill-opacity="1" dy="0.9166666666666666em" transform="translate(45 13)">Zip</text></g><g><path d="M 990.4298549999994,402.6517056000003 C 965.5770412576137,402.6517056000003 945.4298549999994,393.6974005966162 945.4298549999994,382.6517056000003 C 945.4298549999994,371.6060106033844 965.5770412576137,362.6517056000003 990.4298549999994,362.6517056000003 C 1015.2826687423851,362.6517056000003 1035.4298549999994,371.6060106033844 1035.4298549999994,382.6517056000003 C 1035.4298549999994,393.6974005966162 1015.2826687423851,402.6517056000003 990.4298549999994,402.6517056000003 Z" fill="url(#ygc159_32)" stroke="rgb(0,0,0)" stroke-opacity="1" stroke-width="1" stroke-linecap="butt" stroke-linejoin="miter" stroke-miterlimit="1.45"/></g><g transform="translate(945.4298549999994 362.6517056000003)"><text font-family="'Arial'" font-size="12px" font-style="normal" font-weight="normal" text-decoration="none" text-anchor="middle" fill="rgb(0,0,0)" fill-opacity="1" dy="0.9166666666666666em" transform="translate(45 13)">City</text></g><g><path d="M 1080.4298549999994,362.6517056000003 C 1055.5770412576137,362.6517056000003 1035.4298549999994,353.6974005966162 1035.4298549999994,342.6517056000003 C 1035.4298549999994,331.6060106033844 1055.5770412576137,322.6517056000003 1080.4298549999994,322.6517056000003 C 1105.282668742385,322.6517056000003 1125.4298549999994,331.6060106033844 1125.4298549999994,342.6517056000003 C 1125.4298549999994,353.6974005966162 1105.282668742385,362.6517056000003 1080.4298549999994,362.6517056000003 Z" fill="url(#ygc159_32)" stroke="rgb(0,0,0)" stroke-opacity="1" stroke-width="1" stroke-linecap="butt" stroke-linejoin="miter" stroke-miterlimit="1.45"/></g><g transform="translate(1035.4298549999994 322.6517056000003)"><text font-family="'Arial'" font-size="12px" font-style="normal" font-weight="normal" text-decoration="none" text-anchor="middle" fill="rgb(0,0,0)" fill-opacity="1" dy="0.9166666666666666em" transform="translate(45 13)">Number</text></g><g><path d="M 617.1667030399985,62.480723999999725 L 666.3542030399985,85.68072399999971 L 617.1667030399985,108.8807239999997 L 567.9792030399985,85.68072399999971 Z" fill="rgb(183,201,227)" fill-opacity="1" stroke="rgb(0,0,0)" stroke-opacity="1" stroke-width="1" stroke-linecap="butt" stroke-linejoin="miter" stroke-miterlimit="10"/><path d="M 617.1667030399985,65.79768149450742 L 659.321752748572,85.68072399999971 L 617.1667030399985,105.56376650549201 L 575.0116533314251,85.68072399999971 Z" fill="none" stroke="rgb(0,0,0)" stroke-opacity="1" stroke-width="1" stroke-linecap="butt" stroke-linejoin="miter" stroke-miterlimit="10"/></g><g transform="translate(567.9792030399985 62.480723999999725)"><text font-family="'Arial'" font-size="12px" font-style="normal" font-weight="normal" text-decoration="none" text-anchor="middle" fill="rgb(0,0,0)" fill-opacity="1" dy="0.9166666666666666em" transform="translate(49.1875 16.19999999999999)">Contains</text></g><g><path d="M 446.90304695999976,171.8882239999998 L 526.9030469599998,171.8882239999998 L 526.9030469599998,211.88822399999992 L 446.90304695999976,211.88822399999992 Z" fill="rgb(183,201,227)" fill-opacity="1" stroke="rgb(0,0,0)" stroke-opacity="1" stroke-width="1" stroke-linecap="butt" stroke-linejoin="miter" stroke-miterlimit="10"/><path d="M 449.90304695999976,174.8882239999998 L 523.9030469599998,174.8882239999998 L 523.9030469599998,208.88822399999992 L 449.90304695999976,208.88822399999992 Z" fill="none" stroke="rgb(0,0,0)" stroke-opacity="1" stroke-width="1" stroke-linecap="butt" stroke-linejoin="miter" stroke-miterlimit="10"/></g><g transform="translate(446.90304695999976 171.8882239999998)"><rect fill="rgb(255,255,255)" stroke="rgb(255,255,255)" width="80" height="40" x="0" y="0" fill-opacity="0" stroke-opacity="0" stroke-width="1" stroke-linecap="butt" stroke-linejoin="miter" stroke-miterlimit="10" rx="0" ry="0"/><text font-family="'Arial'" font-size="12px" font-style="normal" font-weight="normal" text-decoration="none" text-anchor="middle" fill="rgb(0,0,0)" fill-opacity="1" dy="0.9166666666666666em" transform="translate(40 13.000000000000057)">Item</text></g><g><path d="M 8.97904096000093,-216.06177599999984 C -13.112349033230831,-216.06177599999984 -31.02095903999907,-225.01608100338396 -31.02095903999907,-236.06177599999984 C -31.02095903999907,-247.10747099661572 -13.112349033230831,-256.06177599999984 8.97904096000093,-256.06177599999984 C 31.07043095323269,-256.06177599999984 48.97904096000093,-247.10747099661572 48.97904096000093,-236.06177599999984 C 48.97904096000093,-225.01608100338396 31.07043095323269,-216.06177599999984 8.97904096000093,-216.06177599999984 Z" fill="url(#ygc159_19)" stroke="rgb(0,0,0)" stroke-opacity="1" stroke-width="1" stroke-linecap="butt" stroke-linejoin="miter" stroke-miterlimit="1.45"/></g><g transform="translate(-31.02095903999907 -256.06177599999984)"><text font-family="'Arial'" font-size="12px" font-style="normal" font-weight="normal" text-decoration="none" text-anchor="middle" fill="rgb(0,0,0)" fill-opacity="1" dy="0.9166666666666666em" transform="translate(40 13)">Date Joined</text></g><g><path d="M 100.47499999999991,-216.06177599999984 C 78.38361000676815,-216.06177599999984 60.47499999999991,-225.01608100338396 60.47499999999991,-236.06177599999984 C 60.47499999999991,-247.10747099661572 78.38361000676815,-256.06177599999984 100.47499999999991,-256.06177599999984 C 122.56638999323167,-256.06177599999984 140.4749999999999,-247.10747099661572 140.4749999999999,-236.06177599999984 C 140.4749999999999,-225.01608100338396 122.56638999323167,-216.06177599999984 100.47499999999991,-216.06177599999984 Z" fill="url(#ygc159_19)" stroke="rgb(0,0,0)" stroke-opacity="1" stroke-width="1" stroke-linecap="butt" stroke-linejoin="miter" stroke-miterlimit="1.45"/></g><g transform="translate(60.47499999999991 -256.06177599999984)"><text font-family="'Arial'" font-size="12px" font-style="normal" font-weight="normal" text-decoration="none" text-anchor="middle" fill="rgb(0,0,0)" fill-opacity="1" dy="0.9166666666666666em" transform="translate(40 13)">Last Login</text></g><g><path d="M 200.1109219600014,-216.06177599999984 C 178.01953196676965,-216.06177599999984 160.1109219600014,-225.01608100338396 160.1109219600014,-236.06177599999984 C 160.1109219600014,-247.10747099661572 178.01953196676965,-256.06177599999984 200.1109219600014,-256.06177599999984 C 222.20231195323316,-256.06177599999984 240.1109219600014,-247.10747099661572 240.1109219600014,-236.06177599999984 C 240.1109219600014,-225.01608100338396 222.20231195323316,-216.06177599999984 200.1109219600014,-216.06177599999984 Z" fill="url(#ygc159_19)" stroke="rgb(0,0,0)" stroke-opacity="1" stroke-width="1" stroke-linecap="butt" stroke-linejoin="miter" stroke-miterlimit="1.45"/></g><g transform="translate(160.1109219600014 -256.06177599999984)"><text font-family="'Arial'" font-size="12px" font-style="normal" font-weight="normal" text-decoration="none" text-anchor="middle" fill="rgb(0,0,0)" fill-opacity="1" dy="0.9166666666666666em" transform="translate(40 13)">Is Active</text></g><g><path d="M 279.9709590399989,-256.14177599999977 C 257.87956904676713,-256.14177599999977 239.9709590399989,-265.09608100338386 239.9709590399989,-276.14177599999977 C 239.9709590399989,-287.1874709966157 257.87956904676713,-296.14177599999977 279.9709590399989,-296.14177599999977 C 302.06234903323065,-296.14177599999977 319.9709590399989,-287.1874709966157 319.9709590399989,-276.14177599999977 C 319.9709590399989,-265.09608100338386 302.06234903323065,-256.14177599999977 279.9709590399989,-256.14177599999977 Z" fill="url(#ygc159_19)" stroke="rgb(0,0,0)" stroke-opacity="1" stroke-width="1" stroke-linecap="butt" stroke-linejoin="miter" stroke-miterlimit="1.45"/></g><g transform="translate(239.9709590399989 -296.14177599999977)"><text font-family="'Arial'" font-size="12px" font-style="normal" font-weight="normal" text-decoration="none" text-anchor="middle" fill="rgb(0,0,0)" fill-opacity="1" dy="0.9166666666666666em" transform="translate(40 13)">Is Superuser</text></g><g><path d="M 828.8432969600007,137.1917056000006 C 820.5590257125388,137.1917056000006 813.8432969600007,130.4759768474625 813.8432969600007,122.1917056000006 C 813.8432969600007,113.90743435253869 820.5590257125388,107.1917056000006 828.8432969600007,107.1917056000006 C 837.1275682074626,107.1917056000006 843.8432969600007,113.90743435253869 843.8432969600007,122.1917056000006 C 843.8432969600007,130.4759768474625 837.1275682074626,137.1917056000006 828.8432969600007,137.1917056000006 Z" stroke="rgb(0,0,0)" stroke-opacity="1" stroke-width="1" stroke-linecap="butt" stroke-linejoin="miter" stroke-miterlimit="10" fill="rgb(210,222,238)" fill-opacity="1"/></g><g transform="translate(803.8432969600007 107.1917056000006)"><text font-family="'Arial'" font-size="12px" font-style="normal" font-weight="normal" text-decoration="none" text-anchor="middle" fill="rgb(0,0,0)" fill-opacity="1" dy="0.9166666666666666em" transform="translate(25 8)">d</text></g><g><path d="M 897.5585869600009,160.13822400000004 L 977.5585869600009,160.13822400000004 L 977.5585869600009,200.13822400000004 L 897.5585869600009,200.13822400000004 Z" fill="url(#ygc159_21)" stroke="rgb(0,0,0)" stroke-opacity="1" stroke-width="1" stroke-linecap="butt" stroke-linejoin="miter" stroke-miterlimit="1.45"/></g><g transform="translate(897.5585869600009 160.13822400000004)"><text font-family="'Arial'" font-size="12px" font-style="normal" font-weight="normal" text-decoration="none" text-anchor="middle" fill="rgb(0,0,0)" fill-opacity="1" dy="0.9166666666666666em" transform="translate(40 13)">Store</text></g><g><path d="M 690.8558169600003,160.1382239999998 L 770.8558169600003,160.1382239999998 L 770.8558169600003,200.1382239999998 L 690.8558169600003,200.1382239999998 Z" fill="url(#ygc159_21)" stroke="rgb(0,0,0)" stroke-opacity="1" stroke-width="1" stroke-linecap="butt" stroke-linejoin="miter" stroke-miterlimit="1.45"/></g><g transform="translate(690.8558169600003 160.1382239999998)"><text font-family="'Arial'" font-size="12px" font-style="normal" font-weight="normal" text-decoration="none" text-anchor="middle" fill="rgb(0,0,0)" fill-opacity="1" dy="0.9166666666666666em" transform="translate(40 13)">Private</text></g><g><path d="M 691.6058169600003,271.2465943999999 C 669.5144269667685,271.2465943999999 651.6058169600003,262.2922893966158 651.6058169600003,251.24659439999988 C 651.6058169600003,240.200899403384 669.5144269667685,231.24659439999988 691.6058169600003,231.24659439999988 C 713.6972069532321,231.24659439999988 731.6058169600003,240.200899403384 731.6058169600003,251.24659439999988 C 731.6058169600003,262.2922893966158 713.6972069532321,271.2465943999999 691.6058169600003,271.2465943999999 Z" fill="url(#ygc159_32)" stroke="rgb(0,0,0)" stroke-opacity="1" stroke-width="1" stroke-linecap="butt" stroke-linejoin="miter" stroke-miterlimit="1.45"/></g><g transform="translate(651.6058169600003 231.24659439999988)"><text font-family="'Arial'" font-size="12px" font-style="normal" font-weight="normal" text-decoration="none" text-anchor="middle" fill="rgb(0,0,0)" fill-opacity="1" dy="0.9166666666666666em" transform="translate(40 13)">Name</text></g><g><path d="M 631.4973749999986,334.47996480000023 C 609.4059850067667,334.47996480000023 591.4973749999986,325.52565979661614 591.4973749999986,314.47996480000023 C 591.4973749999986,303.4342698033843 609.4059850067667,294.47996480000023 631.4973749999986,294.47996480000023 C 653.5887649932304,294.47996480000023 671.4973749999986,303.4342698033843 671.4973749999986,314.47996480000023 C 671.4973749999986,325.52565979661614 653.5887649932304,334.47996480000023 631.4973749999986,334.47996480000023 Z" fill="url(#ygc159_32)" stroke="rgb(0,0,0)" stroke-opacity="1" stroke-width="1" stroke-linecap="butt" stroke-linejoin="miter" stroke-miterlimit="1.45"/></g><g transform="translate(591.4973749999986 294.47996480000023)"><text font-family="'Arial'" font-size="12px" font-style="normal" font-weight="normal" text-decoration="none" text-anchor="middle" fill="rgb(0,0,0)" fill-opacity="1" dy="0.9166666666666666em" transform="translate(40 13)">First name</text></g><g><path d="M 741.9973749999986,334.4799648000001 C 719.9059850067667,334.4799648000001 701.9973749999986,325.525659796616 701.9973749999986,314.4799648000001 C 701.9973749999986,303.4342698033842 719.9059850067667,294.4799648000001 741.9973749999986,294.4799648000001 C 764.0887649932304,294.4799648000001 781.9973749999986,303.4342698033842 781.9973749999986,314.4799648000001 C 781.9973749999986,325.525659796616 764.0887649932304,334.4799648000001 741.9973749999986,334.4799648000001 Z" fill="url(#ygc159_32)" stroke="rgb(0,0,0)" stroke-opacity="1" stroke-width="1" stroke-linecap="butt" stroke-linejoin="miter" stroke-miterlimit="1.45"/></g><g transform="translate(701.9973749999986 294.4799648000001)"><text font-family="'Arial'" font-size="12px" font-style="normal" font-weight="normal" text-decoration="none" text-anchor="middle" fill="rgb(0,0,0)" fill-opacity="1" dy="0.9166666666666666em" transform="translate(40 13)">Last name</text></g><g><path d="M -171.11737499999913,-436.7252575999998 C -204.08187100552465,-436.7252575999998 -230.80487499999913,-445.6795626033839 -230.80487499999913,-456.7252575999998 C -230.80487499999913,-467.7709525966157 -204.08187100552465,-476.7252575999998 -171.11737499999913,-476.7252575999998 C -138.1528789944736,-476.7252575999998 -111.42987499999913,-467.7709525966157 -111.42987499999913,-456.7252575999998 C -111.42987499999913,-445.6795626033839 -138.1528789944736,-436.7252575999998 -171.11737499999913,-436.7252575999998 Z" fill="url(#ygc159_22)" stroke="rgb(0,0,0)" stroke-opacity="1" stroke-width="1" stroke-linecap="butt" stroke-linejoin="miter" stroke-miterlimit="1.45"/></g><g transform="translate(-230.80487499999913 -476.7252575999998)"><text font-family="'Arial'" font-size="12px" font-style="normal" font-weight="normal" text-decoration="none" text-anchor="middle" fill="rgb(0,0,0)" fill-opacity="1" dy="0.9166666666666666em" transform="translate(59.6875 13)">Show Premium Ad</text></g></g></svg>