<svg xmlns="http://www.w3.org/2000/svg" style="overflow: hidden; display: block; width: 1785px; height: 1041px;" width="1785px" height="1041px" viewBox="0 0 1785 1041" xmlns:xlink="http://www.w3.org/1999/xlink"><defs><path d="M 15,8 L 15,-8 M 10,0 L -2,8 M 10,0 L -2,0 M 10,0 L -2,-8" stroke="rgb(0,0,0)" stroke-opacity="1" stroke-width="1" stroke-linecap="butt" stroke-linejoin="miter" stroke-miterlimit="10" id="ygc193_0"/><g id="ygc193_1"><circle cx="15" cy="0" r="5" fill="#fff" stroke="rgb(0,0,0)" stroke-opacity="1" stroke-width="1" stroke-linecap="butt" stroke-linejoin="miter" stroke-miterlimit="10"/><path d="M 10,0 L -2,8 M 10,0 L -2,0 M 10,0 L -2,-8" stroke="rgb(0,0,0)" stroke-opacity="1" stroke-width="1" stroke-linecap="butt" stroke-linejoin="miter" stroke-miterlimit="10"/></g><path d="M 10,-8 L 10,8 Z" stroke="rgb(0,0,0)" stroke-opacity="1" stroke-width="1" stroke-linecap="butt" stroke-linejoin="miter" stroke-miterlimit="10" id="ygc193_2"/><path d="M 10,-8 L 10,8 Z" stroke="rgb(0,0,0)" stroke-opacity="1" stroke-width="1" stroke-linecap="butt" stroke-linejoin="miter" stroke-miterlimit="10" id="ygc193_3"/><path d="M 10,0 L -2,8 M 10,0 L -2,0 M 10,0 L -2,-8" stroke="rgb(0,0,0)" stroke-opacity="1" stroke-width="1" stroke-linecap="butt" stroke-linejoin="miter" stroke-miterlimit="10" id="ygc193_4"/><path d="M 15,8 L 15,-8 M 10,0 L -2,8 M 10,0 L -2,0 M 10,0 L -2,-8" stroke="rgb(0,0,0)" stroke-opacity="1" stroke-width="1" stroke-linecap="butt" stroke-linejoin="miter" stroke-miterlimit="10" id="ygc193_5"/><path d="M 10,-8 L 10,8 Z" stroke="rgb(0,0,0)" stroke-opacity="1" stroke-width="1" stroke-linecap="butt" stroke-linejoin="miter" stroke-miterlimit="10" id="ygc193_6"/><path d="M 10,0 L -2,8 M 10,0 L -2,0 M 10,0 L -2,-8" stroke="rgb(0,0,0)" stroke-opacity="1" stroke-width="1" stroke-linecap="butt" stroke-linejoin="miter" stroke-miterlimit="10" id="ygc193_7"/><path d="M 10,-8 L 10,8 Z" stroke="rgb(0,0,0)" stroke-opacity="1" stroke-width="1" stroke-linecap="butt" stroke-linejoin="miter" stroke-miterlimit="10" id="ygc193_8"/><path d="M 10,0 L -2,8 M 10,0 L -2,0 M 10,0 L -2,-8" stroke="rgb(0,0,0)" stroke-opacity="1" stroke-width="1" stroke-linecap="butt" stroke-linejoin="miter" stroke-miterlimit="10" id="ygc193_9"/><path fill="rgb(0,0,0)" stroke="rgb(0,0,0)" d="M 0,0 L 10,-5 L 5,0 L 10,5 Z" fill-opacity="1" stroke-opacity="1" stroke-width="1" stroke-linecap="butt" stroke-linejoin="miter" stroke-miterlimit="10" id="ygc193_10"/><path fill="rgb(0,0,0)" stroke="rgb(0,0,0)" d="M 0,0 L 10,-5 L 5,0 L 10,5 Z" fill-opacity="1" stroke-opacity="1" stroke-width="1" stroke-linecap="butt" stroke-linejoin="miter" stroke-miterlimit="10" id="ygc193_11"/><g id="ygc193_12"><circle cx="15" cy="0" r="5" fill="#fff" stroke="rgb(0,0,0)" stroke-opacity="1" stroke-width="1" stroke-linecap="butt" stroke-linejoin="miter" stroke-miterlimit="10"/><path d="M 10,0 L -2,8 M 10,0 L -2,0 M 10,0 L -2,-8" stroke="rgb(0,0,0)" stroke-opacity="1" stroke-width="1" stroke-linecap="butt" stroke-linejoin="miter" stroke-miterlimit="10"/></g><path fill="rgb(0,0,0)" stroke="rgb(0,0,0)" d="M 0,0 L 10,-5 L 5,0 L 10,5 Z" fill-opacity="1" stroke-opacity="1" stroke-width="1" stroke-linecap="butt" stroke-linejoin="miter" stroke-miterlimit="10" id="ygc193_13"/><path fill="rgb(0,0,0)" stroke="rgb(0,0,0)" d="M 0,0 L 10,-5 L 5,0 L 10,5 Z" fill-opacity="1" stroke-opacity="1" stroke-width="1" stroke-linecap="butt" stroke-linejoin="miter" stroke-miterlimit="10" id="ygc193_14"/><path d="M 10,0 L -2,8 M 10,0 L -2,0 M 10,0 L -2,-8" stroke="rgb(0,0,0)" stroke-opacity="1" stroke-width="1" stroke-linecap="butt" stroke-linejoin="miter" stroke-miterlimit="10" id="ygc193_15"/><path d="M 10,-8 L 10,8 Z" stroke="rgb(0,0,0)" stroke-opacity="1" stroke-width="1" stroke-linecap="butt" stroke-linejoin="miter" stroke-miterlimit="10" id="ygc193_16"/><linearGradient x1="0" y1="0" x2="1" y2="1" spreadMethod="pad" id="ygc193_17"><stop stop-color="rgb(232,238,247)" stop-opacity="1" offset="0"/><stop stop-color="rgb(183,201,227)" stop-opacity="1" offset="1"/></linearGradient><linearGradient x1="0" y1="0" x2="1" y2="1" spreadMethod="pad" id="ygc193_18"><stop stop-color="rgb(232,238,247)" stop-opacity="1" offset="0"/><stop stop-color="rgb(183,201,227)" stop-opacity="1" offset="1"/></linearGradient><linearGradient x1="0" y1="0" x2="1" y2="1" spreadMethod="pad" id="ygc193_19"><stop stop-color="rgb(232,238,247)" stop-opacity="1" offset="0"/><stop stop-color="rgb(183,201,227)" stop-opacity="1" offset="1"/></linearGradient><linearGradient x1="0" y1="0" x2="1" y2="1" spreadMethod="pad" id="ygc193_20"><stop stop-color="rgb(232,238,247)" stop-opacity="1" offset="0"/><stop stop-color="rgb(183,201,227)" stop-opacity="1" offset="1"/></linearGradient><linearGradient x1="0" y1="0" x2="1" y2="1" spreadMethod="pad" id="ygc193_21"><stop stop-color="rgb(232,238,247)" stop-opacity="1" offset="0"/><stop stop-color="rgb(183,201,227)" stop-opacity="1" offset="1"/></linearGradient><linearGradient x1="0" y1="0" x2="1" y2="1" spreadMethod="pad" id="ygc193_22"><stop stop-color="rgb(232,238,247)" stop-opacity="1" offset="0"/><stop stop-color="rgb(183,201,227)" stop-opacity="1" offset="1"/></linearGradient><linearGradient x1="0" y1="0" x2="1" y2="1" spreadMethod="pad" id="ygc193_23"><stop stop-color="rgb(232,238,247)" stop-opacity="1" offset="0"/><stop stop-color="rgb(183,201,227)" stop-opacity="1" offset="1"/></linearGradient><linearGradient x1="0" y1="0" x2="1" y2="1" spreadMethod="pad" id="ygc193_24"><stop stop-color="rgb(232,238,247)" stop-opacity="1" offset="0"/><stop stop-color="rgb(183,201,227)" stop-opacity="1" offset="1"/></linearGradient><linearGradient x1="0" y1="0" x2="1" y2="1" spreadMethod="pad" id="ygc193_25"><stop stop-color="rgb(232,238,247)" stop-opacity="1" offset="0"/><stop stop-color="rgb(183,201,227)" stop-opacity="1" offset="1"/></linearGradient><linearGradient x1="0" y1="0" x2="1" y2="1" spreadMethod="pad" id="ygc193_26"><stop stop-color="rgb(232,238,247)" stop-opacity="1" offset="0"/><stop stop-color="rgb(183,201,227)" stop-opacity="1" offset="1"/></linearGradient><linearGradient x1="0" y1="0" x2="1" y2="1" spreadMethod="pad" id="ygc193_27"><stop stop-color="rgb(232,238,247)" stop-opacity="1" offset="0"/><stop stop-color="rgb(183,201,227)" stop-opacity="1" offset="1"/></linearGradient><linearGradient x1="0" y1="0" x2="1" y2="1" spreadMethod="pad" id="ygc193_28"><stop stop-color="rgb(232,238,247)" stop-opacity="1" offset="0"/><stop stop-color="rgb(183,201,227)" stop-opacity="1" offset="1"/></linearGradient><linearGradient x1="0" y1="0" x2="1" y2="1" spreadMethod="pad" id="ygc193_29"><stop stop-color="rgb(232,238,247)" stop-opacity="1" offset="0"/><stop stop-color="rgb(183,201,227)" stop-opacity="1" offset="1"/></linearGradient><linearGradient x1="0" y1="0" x2="1" y2="1" spreadMethod="pad" id="ygc193_30"><stop stop-color="rgb(232,238,247)" stop-opacity="1" offset="0"/><stop stop-color="rgb(183,201,227)" stop-opacity="1" offset="1"/></linearGradient><linearGradient x1="0" y1="0" x2="1" y2="1" spreadMethod="pad" id="ygc193_31"><stop stop-color="rgb(232,238,247)" stop-opacity="1" offset="0"/><stop stop-color="rgb(183,201,227)" stop-opacity="1" offset="1"/></linearGradient><linearGradient x1="0" y1="0" x2="1" y2="1" spreadMethod="pad" id="ygc193_32"><stop stop-color="rgb(232,238,247)" stop-opacity="1" offset="0"/><stop stop-color="rgb(183,201,227)" stop-opacity="1" offset="1"/></linearGradient><linearGradient x1="0" y1="0" x2="1" y2="1" spreadMethod="pad" id="ygc193_33"><stop stop-color="rgb(232,238,247)" stop-opacity="1" offset="0"/><stop stop-color="rgb(183,201,227)" stop-opacity="1" offset="1"/></linearGradient><linearGradient x1="0" y1="0" x2="1" y2="1" spreadMethod="pad" id="ygc193_34"><stop stop-color="rgb(232,238,247)" stop-opacity="1" offset="0"/><stop stop-color="rgb(183,201,227)" stop-opacity="1" offset="1"/></linearGradient><linearGradient x1="0" y1="0" x2="1" y2="1" spreadMethod="pad" id="ygc193_35"><stop stop-color="rgb(232,238,247)" stop-opacity="1" offset="0"/><stop stop-color="rgb(183,201,227)" stop-opacity="1" offset="1"/></linearGradient><linearGradient x1="0" y1="0" x2="1" y2="1" spreadMethod="pad" id="ygc193_36"><stop stop-color="rgb(232,238,247)" stop-opacity="1" offset="0"/><stop stop-color="rgb(183,201,227)" stop-opacity="1" offset="1"/></linearGradient><linearGradient x1="0" y1="0" x2="1" y2="1" spreadMethod="pad" id="ygc193_37"><stop stop-color="rgb(232,238,247)" stop-opacity="1" offset="0"/><stop stop-color="rgb(183,201,227)" stop-opacity="1" offset="1"/></linearGradient><linearGradient x1="0" y1="0" x2="1" y2="1" spreadMethod="pad" id="ygc193_38"><stop stop-color="rgb(232,238,247)" stop-opacity="1" offset="0"/><stop stop-color="rgb(183,201,227)" stop-opacity="1" offset="1"/></linearGradient><linearGradient x1="0" y1="0" x2="1" y2="1" spreadMethod="pad" id="ygc193_39"><stop stop-color="rgb(232,238,247)" stop-opacity="1" offset="0"/><stop stop-color="rgb(183,201,227)" stop-opacity="1" offset="1"/></linearGradient></defs><g style="pointer-events:visiblePainted" transform="translate(314.8429847560967 599.6417055999998)" image-rendering="auto" shape-rendering="auto"><g style="box-sizing:initial;"><g><path fill="none" stroke="rgb(0,0,0)" d="M 91.00484202916059,-461.1050673686117 L 121.1859759885716,-429.138224" stroke-opacity="1" stroke-width="1" stroke-linecap="butt" stroke-linejoin="miter" stroke-miterlimit="1.45"/></g><g><path fill="none" stroke="rgb(0,0,0)" d="M 167.22643806529769,-463.14712886463457 L 150.1254945806814,-429.138224" stroke-opacity="1" stroke-width="1" stroke-linecap="butt" stroke-linejoin="miter" stroke-miterlimit="1.45"/></g><g><path fill="none" stroke="rgb(0,0,0)" d="M 232.01288088437602,-448.3753001786509 L 180.0687499999999,-426.2081884670058" stroke-opacity="1" stroke-width="1" stroke-linecap="butt" stroke-linejoin="miter" stroke-miterlimit="1.45"/></g><g><path fill="none" stroke="rgb(0,0,0)" d="M 180.0687499999999,-408.02913292483277 L 385.51302681791776,-402.3327225782593" stroke-opacity="1" stroke-width="1" stroke-linecap="butt" stroke-linejoin="miter" stroke-miterlimit="1.45"/><g/><use transform="matrix(0.9996158205626522 0.027716624629550234 -0.027716624629550234 0.9996158205626522 180.0687499999999 -408.02913292483277)" xlink:href="#ygc193_0"/></g><g><path fill="none" stroke="rgb(0,0,0)" d="M 34.183899066475604,-344.390733804248 L 107.36173676646726,-389.138224" stroke-opacity="1" stroke-width="1" stroke-linecap="butt" stroke-linejoin="miter" stroke-miterlimit="10"/></g><g><path fill="none" stroke="rgb(0,0,0)" d="M 112.74611350122805,-347.9185103582499 L 139.45171736691177,-389.138224" stroke-opacity="1" stroke-width="1" stroke-linecap="butt" stroke-linejoin="miter" stroke-miterlimit="10"/></g><g><path fill="none" stroke="rgb(0,0,0)" d="M 186.1236140337399,-347.65214212734634 L 155.04933182634758,-389.138224" stroke-opacity="1" stroke-width="1" stroke-linecap="butt" stroke-linejoin="miter" stroke-miterlimit="10"/></g><g><path fill="none" stroke="rgb(0,0,0)" d="M 245.41134317538496,-378.9590641179547 L 180.0687499999999,-397.6787909359971" stroke-opacity="1" stroke-width="1" stroke-linecap="butt" stroke-linejoin="miter" stroke-miterlimit="10"/></g><g><path fill="none" stroke="rgb(0,0,0)" d="M 23.97904096000093,-409.13822399999987 L 100.06874999999991,-409.138224" stroke-opacity="1" stroke-width="0.75" stroke-linecap="butt" stroke-linejoin="miter" stroke-miterlimit="10"/></g><g><path fill="none" stroke="rgb(0,0,0)" d="M 23.749100300261503,-406.8572609045897 L 100.06874999999992,-406.981454312389" stroke-opacity="1" stroke-width="0.75" stroke-linecap="butt" stroke-linejoin="miter" stroke-miterlimit="10"/></g><g><path fill="none" stroke="rgb(0,0,0)" d="M 564.2308169600003,-335.56079832279283 L 453.91667238778206,-388.89499093284155" stroke-opacity="1" stroke-width="1" stroke-linecap="butt" stroke-linejoin="miter" stroke-miterlimit="1.45"/><g/><use transform="matrix(-0.9002987784561509 -0.43527245434367046 0.43527245434367046 -0.9002987784561509 564.2308169600003 -335.56079832279283)" xlink:href="#ygc193_1"/></g><g><path fill="none" stroke="rgb(0,0,0)" d="M 617.3626577752603,-389.31770356181005 L 607.8238600345699,-336.2217759999998" stroke-opacity="1" stroke-width="1" stroke-linecap="butt" stroke-linejoin="miter" stroke-miterlimit="1.45"/></g><g><path fill="none" stroke="rgb(0,0,0)" d="M 604.2308169600003,-296.2217759999998 L 604.2308169600003,-170.3749999999999" stroke-opacity="1" stroke-width="1" stroke-linecap="butt" stroke-linejoin="miter" stroke-miterlimit="1.45"/><g/><use transform="matrix(0 1 -1 0 604.2308169600003 -296.2217759999998)" xlink:href="#ygc193_2"/></g><g><path fill="none" stroke="rgb(0,0,0)" d="M 692.3311745587885,-355.559234752455 L 608.3661429998132,-336.2217759999998" stroke-opacity="1" stroke-width="0.75" stroke-linecap="butt" stroke-linejoin="miter" stroke-miterlimit="10"/></g><g><path fill="none" stroke="rgb(0,0,0)" d="M 644.2308169600003,-316.22177599999986 L 727.1183369599999,-316.2217759999999" stroke-opacity="1" stroke-width="1" stroke-linecap="butt" stroke-linejoin="miter" stroke-miterlimit="10"/><g/><use transform="matrix(1 -6.857898373700689e-16 6.857898373700689e-16 1 644.2308169600003 -316.22177599999986)" xlink:href="#ygc193_3"/></g><g><path fill="none" stroke="rgb(0,0,0)" d="M 564.2308169600003,-300.6874205830263 L 429.8777004982402,-248.51019402065106" stroke-opacity="1" stroke-width="1" stroke-linecap="butt" stroke-linejoin="miter" stroke-miterlimit="1.45"/></g><g><path fill="none" stroke="rgb(0,0,0)" d="M 599.8060361403664,11.47177600000009 L 603.439668273239,-114.86727029398466" stroke-opacity="1" stroke-width="1" stroke-linecap="butt" stroke-linejoin="miter" stroke-miterlimit="1.45"/><g/><use transform="matrix(0.028749070964490118 -0.9995866600343758 0.9995866600343758 0.028749070964490118 599.8060361403664 11.47177600000009)" xlink:href="#ygc193_4"/></g><g><path fill="none" stroke="rgb(0,0,0)" d="M 698.9053419060576,78.3553635667366 L 639.2308169600003,50.28644809083146" stroke-opacity="1" stroke-width="1" stroke-linecap="butt" stroke-linejoin="miter" stroke-miterlimit="1.45"/></g><g><path fill="none" stroke="rgb(0,0,0)" d="M 509.1804200398882,97.9119285029798 L 572.1235953394378,51.47177600000009" stroke-opacity="1" stroke-width="1" stroke-linecap="butt" stroke-linejoin="miter" stroke-miterlimit="1.45"/></g><g><path fill="none" stroke="rgb(0,0,0)" d="M 572.3142754493823,126.74704921025328 L 593.5805489305991,51.47177600000009" stroke-opacity="1" stroke-width="1" stroke-linecap="butt" stroke-linejoin="miter" stroke-miterlimit="1.45"/></g><g><path fill="none" stroke="rgb(0,0,0)" d="M 639.2308169600003,30.022753632931877 L 688.1141022000104,28.251929290718127" stroke-opacity="1" stroke-width="1" stroke-linecap="butt" stroke-linejoin="miter" stroke-miterlimit="1.45"/></g><g><path fill="none" stroke="rgb(0,0,0)" d="M 621.2944323589752,11.47177600000009 L 770.8585913965564,-124.10361029369903" stroke-opacity="1" stroke-width="1" stroke-linecap="butt" stroke-linejoin="miter" stroke-miterlimit="10"/><g/><use transform="matrix(0.7409059307638762 -0.6716088160223288 0.6716088160223288 0.7409059307638762 621.2944323589752 11.47177600000009)" xlink:href="#ygc193_5"/></g><g><path fill="none" stroke="rgb(0,0,0)" d="M 613.0282404085901,51.47177600000009 L 692.8357364717974,167.15641286075305" stroke-opacity="1" stroke-width="1" stroke-linecap="butt" stroke-linejoin="miter" stroke-miterlimit="10"/><g/><use transform="matrix(0.5678534384061008 0.8231296814538815 -0.8231296814538815 0.5678534384061008 613.0282404085901 51.47177600000009)" xlink:href="#ygc193_6"/></g><g><path fill="none" stroke="rgb(0,0,0)" d="M 560.3023900093722,11.47177600000009 L 472.5176283963515,-33.628819369217204" stroke-opacity="1" stroke-width="1" stroke-linecap="butt" stroke-linejoin="miter" stroke-miterlimit="10"/><g/><use transform="matrix(-0.8894766893730853 -0.45698054560549495 0.45698054560549495 -0.8894766893730853 560.3023900093722 11.47177600000009)" xlink:href="#ygc193_7"/></g><g><path fill="none" stroke="rgb(0,0,0)" d="M 937.7374188489366,-296.2217759999999 L 805.9512109208085,-158.26820258971995" stroke-opacity="1" stroke-width="1" stroke-linecap="butt" stroke-linejoin="miter" stroke-miterlimit="10"/><g/><use transform="matrix(-0.6907588697911207 0.7230851843350778 -0.7230851843350778 -0.6907588697911207 937.7374188489366 -296.2217759999999)" xlink:href="#ygc193_8"/></g><g><path fill="none" stroke="rgb(0,0,0)" d="M 996.8432969600008,-316.2217759999999 L 1045.9247129200014,-316.2217759999999" stroke-opacity="1" stroke-width="1" stroke-linecap="butt" stroke-linejoin="miter" stroke-miterlimit="10"/></g><g><path fill="none" stroke="rgb(0,0,0)" d="M 956.8432969600008,-256.06177599999984 L 956.8432969600008,-296.2217759999999" stroke-opacity="1" stroke-width="1" stroke-linecap="butt" stroke-linejoin="miter" stroke-miterlimit="10"/></g><g><path fill="none" stroke="rgb(0,0,0)" d="M 954.5307969600008,-296.0030259999999 L 954.4377969320798,-255.81928094844187" stroke-opacity="1" stroke-width="0.75" stroke-linecap="butt" stroke-linejoin="miter" stroke-miterlimit="10"/></g><g><path fill="none" stroke="rgb(0,0,0)" d="M 916.8432969600008,-316.2217759999999 L 817.1183369599999,-316.2217759999999" stroke-opacity="1" stroke-width="1" stroke-linecap="butt" stroke-linejoin="miter" stroke-miterlimit="10"/><g/><use transform="matrix(-1 0 0 -1 916.8432969600008 -316.2217759999999)" xlink:href="#ygc193_9"/></g><g><path fill="none" stroke="rgb(0,0,0)" d="M 1219.9452801430584,-181.7714929207507 L 1198.0534448800024,-180.06705227248457" stroke-opacity="1" stroke-width="0.75" stroke-linecap="butt" stroke-linejoin="miter" stroke-miterlimit="10"/></g><g><path fill="none" stroke="rgb(0,0,0)" d="M 707.6403420723719,300.0258351999999 L 723.5271936516262,370.7696858678939" stroke-opacity="1" stroke-width="1" stroke-linecap="butt" stroke-linejoin="miter" stroke-miterlimit="10"/></g><g><path fill="none" stroke="rgb(0,0,0)" d="M 685.945226490971,300.0258351999999 L 636.7871852326582,357.17391383591496" stroke-opacity="1" stroke-width="1" stroke-linecap="butt" stroke-linejoin="miter" stroke-miterlimit="10"/></g><g><path fill="none" stroke="rgb(0,0,0)" d="M 743.1489689200014,279.2350291347204 L 801.3156273577309,278.08506547748055" stroke-opacity="1" stroke-width="1" stroke-linecap="butt" stroke-linejoin="miter" stroke-miterlimit="10"/></g><g><path fill="none" stroke="rgb(0,0,0)" d="M 298.71829696000077,-96.83275760000066 L 298.71829696000077,-39.89579679999889" stroke-opacity="1" stroke-width="1" stroke-linecap="butt" stroke-linejoin="miter" stroke-miterlimit="1.45"/></g><g><path fill="none" stroke="rgb(0,0,0)" d="M 205.89258589675535,-97.98746878508736 L 258.71829696000077,-108.71203820057768" stroke-opacity="1" stroke-width="1" stroke-linecap="butt" stroke-linejoin="miter" stroke-miterlimit="1.45"/></g><g><path fill="none" stroke="rgb(0,0,0)" d="M 743.1489689200014,294.2297820283465 L 806.0508415997954,316.5661534020271" stroke-opacity="1" stroke-width="1" stroke-linecap="butt" stroke-linejoin="miter" stroke-miterlimit="10"/></g><g><path fill="none" stroke="rgb(0,0,0)" d="M 1246.2520636118784,-97.80522971408443 L 1208.881771974735,-43.82487621054825" stroke-opacity="1" stroke-width="1" stroke-linecap="butt" stroke-linejoin="miter" stroke-miterlimit="10"/></g><g><path fill="none" stroke="rgb(0,0,0)" d="M 1255.6432891940028,-97.00217980942905 L 1240.7335126764788,-18.81218987574354" stroke-opacity="1" stroke-width="1" stroke-linecap="butt" stroke-linejoin="miter" stroke-miterlimit="10"/></g><g><path fill="none" stroke="rgb(0,0,0)" d="M 1272.9164422723,-97.84925103404375 L 1329.8054074877082,-17.80376416595894" stroke-opacity="1" stroke-width="1" stroke-linecap="butt" stroke-linejoin="miter" stroke-miterlimit="10"/></g><g><path fill="none" stroke="rgb(0,0,0)" d="M 1291.7047382173937,-102.93852933055064 L 1362.4558995826121,-72.48524506944949" stroke-opacity="1" stroke-width="1" stroke-linecap="butt" stroke-linejoin="miter" stroke-miterlimit="10"/></g><g><path fill="none" stroke="rgb(0,0,0)" d="M 1191.776421606549,-156.95275760000004 L 1232.5323035796778,-132.78177038044922" stroke-opacity="1" stroke-width="0.75" stroke-linecap="butt" stroke-linejoin="miter" stroke-miterlimit="10"/></g><g><path fill="none" stroke="rgb(0,0,0)" d="M -131.11737499999913,-366.84008843067835 L -12.016183098100932,-402.79931213396446" stroke-opacity="1" stroke-width="0.75" stroke-linecap="butt" stroke-linejoin="miter" stroke-miterlimit="10"/><use style="pointer-events: none;" transform="matrix(-0.9573184882050173 0.2890351399758514 -0.2890351399758514 -0.9573184882050173 -7.229590657075845 -404.2444878338437)" xlink:href="#ygc193_10"/></g><g><path fill="none" stroke="rgb(0,0,0)" d="M -131.11737499999913,-445.8265428715035 L -12.250917293046646,-414.69790568549644" stroke-opacity="1" stroke-width="0.75" stroke-linecap="butt" stroke-linejoin="miter" stroke-miterlimit="10"/><use style="pointer-events: none;" transform="matrix(-0.9673783150107472 -0.2533361317439096 0.2533361317439096 -0.9673783150107472 -7.41402571799291 -413.43122502677693)" xlink:href="#ygc193_11"/></g><g><path fill="none" stroke="rgb(0,0,0)" d="M -225.88157723890987,-285.14955600876107 L -172.14882563089242,-334.76322399999987" stroke-opacity="1" stroke-width="1" stroke-linecap="butt" stroke-linejoin="miter" stroke-miterlimit="1.45"/></g><g><path fill="none" stroke="rgb(0,0,0)" d="M -131.80718738810944,-284.6659405412632 L -170.3840053618643,-334.76322399999987" stroke-opacity="1" stroke-width="0.75" stroke-linecap="butt" stroke-linejoin="miter" stroke-miterlimit="10"/></g><g><path fill="none" stroke="rgb(0,0,0)" d="M -171.11737499999913,-529.6417055999998 L -171.11737499999913,-476.30170560000005" stroke-opacity="1" stroke-width="0.75" stroke-linecap="butt" stroke-linejoin="miter" stroke-miterlimit="10"/></g><g><path fill="none" stroke="rgb(0,0,0)" d="M 703.5185982693139,260.0258351999998 L 704.4863913866135,207.66023603426518" stroke-opacity="1" stroke-width="1" stroke-linecap="butt" stroke-linejoin="miter" stroke-miterlimit="10"/><g/><use transform="matrix(0.01847831196607179 -0.9998292614176105 0.9998292614176105 0.01847831196607179 703.5185982693139 260.0258351999998)" xlink:href="#ygc193_12"/></g><g><path fill="none" stroke="rgb(0,0,0)" d="M 1118.0534448800024,-189.69744648626607 L 977.739519744726,-234.40387954276417" stroke-opacity="1" stroke-width="0.75" stroke-linecap="butt" stroke-linejoin="miter" stroke-miterlimit="10"/><use style="pointer-events: none;" transform="matrix(0.9528058411236171 0.3035803503534384 -0.3035803503534384 0.9528058411236171 972.9754905391078 -235.92178129453137)" xlink:href="#ygc193_13"/></g><g><path fill="none" stroke="rgb(0,0,0)" d="M 1004.9889897756349,-136.83275760000066 L 966.053661457369,-221.12256244785513" stroke-opacity="1" stroke-width="0.75" stroke-linecap="butt" stroke-linejoin="miter" stroke-miterlimit="10"/><use style="pointer-events: none;" transform="matrix(0.4193453142200765 0.9078268047605035 -0.9078268047605035 0.4193453142200765 963.9569348862686 -225.66169647165765)" xlink:href="#ygc193_14"/></g><g><path fill="none" stroke="rgb(255,255,255)" d="M 945.1568221707435,-231.76399154952668 L 926.875,-217.21893455238097 L 842.625,-171.25025760000034 L 944.0854244670904,-233.26401965107127" stroke-opacity="1" stroke-width="1" stroke-linecap="butt" stroke-linejoin="miter" stroke-miterlimit="1.45"/></g><g><path fill="none" stroke="rgb(0,0,0)" d="M 1006.6122593082056,-65.4894769695482 L 1014.0028656810866,-96.83275760000066" stroke-opacity="1" stroke-width="0.75" stroke-linecap="butt" stroke-linejoin="miter" stroke-miterlimit="10"/></g><g><path fill="none" stroke="rgb(0,0,0)" d="M 979.461670148883,-29.191924301030042 L 943.0557413000874,-2.4299044014660716" stroke-opacity="1" stroke-width="0.75" stroke-linecap="butt" stroke-linejoin="miter" stroke-miterlimit="10"/></g><g><path fill="none" stroke="rgb(0,0,0)" d="M 1016.7348183362584,-27.17397969645139 L 1037.560217543745,-1.0414243035495545" stroke-opacity="1" stroke-width="0.75" stroke-linecap="butt" stroke-linejoin="miter" stroke-miterlimit="10"/></g><g><path fill="none" stroke="rgb(0,0,0)" d="M 299.68547693261144,-136.83275760000078 L 384.746242038073,-220.59199039586622" stroke-opacity="1" stroke-width="1" stroke-linecap="butt" stroke-linejoin="miter" stroke-miterlimit="10"/><g/><use transform="matrix(0.7125371063244685 -0.7016344291087441 0.7016344291087441 0.7125371063244685 299.68547693261144 -136.83275760000078)" xlink:href="#ygc193_15"/></g><g><path fill="none" stroke="rgb(0,0,0)" d="M 338.71829696000077,-97.90286532130291 L 424.4220022900073,-57.34381757674585" stroke-opacity="1" stroke-width="1" stroke-linecap="butt" stroke-linejoin="miter" stroke-miterlimit="1.45"/><g/><use transform="matrix(0.9038905644216778 0.42776377540584304 -0.42776377540584304 0.9038905644216778 338.71829696000077 -97.90286532130291)" xlink:href="#ygc193_16"/></g><g><path d="M 100.06874999999991,-429.138224 L 180.0687499999999,-429.138224 L 180.0687499999999,-389.138224 L 100.06874999999991,-389.138224 Z" fill="url(#ygc193_17)" stroke="rgb(0,0,0)" stroke-opacity="1" stroke-width="1" stroke-linecap="butt" stroke-linejoin="miter" stroke-miterlimit="1.45"/></g><g transform="translate(100.06874999999991 -429.138224)"><text font-family="'Arial'" font-size="12px" font-style="normal" font-weight="normal" text-decoration="none" text-anchor="middle" fill="rgb(0,0,0)" fill-opacity="1" dy="0.9166666666666666em" transform="translate(40 13)">User</text></g><g><path d="M 176.94920416000082,-462.4829408 C 154.85781416676906,-462.4829408 136.94920416000082,-471.4372458033841 136.94920416000082,-482.4829408 C 136.94920416000082,-493.5286357966159 154.85781416676906,-502.4829408 176.94920416000082,-502.4829408 C 199.04059415323258,-502.4829408 216.94920416000082,-493.5286357966159 216.94920416000082,-482.4829408 C 216.94920416000082,-471.4372458033841 199.04059415323258,-462.4829408 176.94920416000082,-462.4829408 Z" fill="url(#ygc193_18)" stroke="rgb(0,0,0)" stroke-opacity="1" stroke-width="1" stroke-linecap="butt" stroke-linejoin="miter" stroke-miterlimit="1.45"/></g><g transform="translate(136.94920416000082 -502.4829408)"><text font-family="'Arial'" font-size="12px" font-style="normal" font-weight="bold" text-decoration="underline" text-anchor="middle" fill="rgb(0,0,0)" fill-opacity="1" dy="0.9166666666666666em" transform="translate(40 13)">UserID</text></g><g><path d="M 262.3032905600005,-441.3017055999999 C 240.21190056676875,-441.3017055999999 222.3032905600005,-450.25601060338397 222.3032905600005,-461.3017055999999 C 222.3032905600005,-472.3474005966158 240.21190056676875,-481.3017055999999 262.3032905600005,-481.3017055999999 C 284.39468055323226,-481.3017055999999 302.3032905600005,-472.3474005966158 302.3032905600005,-461.3017055999999 C 302.3032905600005,-450.25601060338397 284.39468055323226,-441.3017055999999 262.3032905600005,-441.3017055999999 Z" fill="url(#ygc193_19)" stroke="rgb(0,0,0)" stroke-opacity="1" stroke-width="1" stroke-linecap="butt" stroke-linejoin="miter" stroke-miterlimit="1.45"/></g><g transform="translate(222.3032905600005 -481.3017055999999)"><text font-family="'Arial'" font-size="12px" font-style="normal" font-weight="bold" text-decoration="underline" text-anchor="middle" fill="rgb(0,0,0)" fill-opacity="1" dy="0.9166666666666666em" transform="translate(40 13)">Email</text></g><g><path d="M 73.97904096000093,-459.13822399999987 C 51.88765096676917,-459.13822399999987 33.97904096000093,-468.09252900338396 33.97904096000093,-479.13822399999987 C 33.97904096000093,-490.1839189966158 51.88765096676917,-499.13822399999987 73.97904096000093,-499.13822399999987 C 96.07043095323269,-499.13822399999987 113.97904096000093,-490.1839189966158 113.97904096000093,-479.13822399999987 C 113.97904096000093,-468.09252900338396 96.07043095323269,-459.13822399999987 73.97904096000093,-459.13822399999987 Z" fill="url(#ygc193_20)" stroke="rgb(0,0,0)" stroke-opacity="1" stroke-width="1" stroke-linecap="butt" stroke-linejoin="miter" stroke-miterlimit="1.45"/></g><g transform="translate(33.97904096000093 -499.13822399999987)"><text font-family="'Arial'" font-size="12px" font-style="normal" font-weight="normal" text-decoration="none" text-anchor="middle" fill="rgb(0,0,0)" fill-opacity="1" dy="0.9166666666666666em" transform="translate(40 13)">Password</text></g><g><path d="M 428.59329696000077,-429.13822399999987 L 473.59329696000077,-401.13822399999987 L 428.59329696000077,-373.13822399999987 L 383.59329696000077,-401.13822399999987 Z" fill="url(#ygc193_21)" stroke="rgb(0,0,0)" stroke-opacity="1" stroke-width="1" stroke-linecap="butt" stroke-linejoin="miter" stroke-miterlimit="1.45"/></g><g transform="translate(383.59329696000077 -429.13822399999987)"><text font-family="'Arial'" font-size="12px" font-style="normal" font-weight="normal" text-decoration="none" text-anchor="middle" fill="rgb(0,0,0)" fill-opacity="1" dy="0.9166666666666666em" transform="translate(45 21)">owns</text></g><g><path d="M 564.2308169600003,-336.2217759999998 L 644.2308169600003,-336.2217759999998 L 644.2308169600003,-296.2217759999998 L 564.2308169600003,-296.2217759999998 Z" fill="url(#ygc193_22)" stroke="rgb(0,0,0)" stroke-opacity="1" stroke-width="1" stroke-linecap="butt" stroke-linejoin="miter" stroke-miterlimit="1.45"/></g><g transform="translate(564.2308169600003 -336.2217759999998)"><text font-family="'Arial'" font-size="12px" font-style="normal" font-weight="normal" text-decoration="none" text-anchor="middle" fill="rgb(0,0,0)" fill-opacity="1" dy="0.9166666666666666em" transform="translate(40 13)">Account</text></g><g><path d="M 620.9234569600005,-389.1382239999999 C 598.8320669667687,-389.1382239999999 580.9234569600005,-398.092529003384 580.9234569600005,-409.1382239999999 C 580.9234569600005,-420.18391899661583 598.8320669667687,-429.1382239999999 620.9234569600005,-429.1382239999999 C 643.0148469532323,-429.1382239999999 660.9234569600005,-420.18391899661583 660.9234569600005,-409.1382239999999 C 660.9234569600005,-398.092529003384 643.0148469532323,-389.1382239999999 620.9234569600005,-389.1382239999999 Z" fill="url(#ygc193_23)" stroke="rgb(0,0,0)" stroke-opacity="1" stroke-width="1" stroke-linecap="butt" stroke-linejoin="miter" stroke-miterlimit="1.45"/></g><g transform="translate(580.9234569600005 -429.1382239999999)"><text font-family="'Arial'" font-size="12px" font-style="normal" font-weight="bold" text-decoration="underline" text-anchor="middle" fill="rgb(0,0,0)" fill-opacity="1" dy="0.9166666666666666em" transform="translate(40 13)">AccountID</text></g><g><path d="M 559.2308169600003,11.47177600000009 L 639.2308169600003,11.47177600000009 L 639.2308169600003,51.47177600000009 L 559.2308169600003,51.47177600000009 Z" fill="url(#ygc193_24)" stroke="rgb(0,0,0)" stroke-opacity="1" stroke-width="1" stroke-linecap="butt" stroke-linejoin="miter" stroke-miterlimit="1.45"/><path d="M 562.2308169600003,14.47177600000009 L 636.2308169600003,14.47177600000009 L 636.2308169600003,48.47177600000009 L 562.2308169600003,48.47177600000009 Z" fill="none" stroke="rgb(0,0,0)" stroke-opacity="1" stroke-width="1" stroke-linecap="butt" stroke-linejoin="miter" stroke-miterlimit="1.45"/></g><g transform="translate(559.2308169600003 11.47177600000009)"><text font-family="'Arial'" font-size="12px" font-style="normal" font-weight="normal" text-decoration="none" text-anchor="middle" fill="rgb(0,0,0)" fill-opacity="1" transform="translate(40 4)"><tspan dy="0.9166666666666666em" x="0">Transaction </tspan><tspan dy="1.5em" x="0">("Cashflow")</tspan></text></g><g><path d="M 604.2308169600003,-170.3749999999999 L 649.2308169600003,-142.3749999999999 L 604.2308169600003,-114.37499999999989 L 559.2308169600003,-142.3749999999999 Z" fill="url(#ygc193_25)" stroke="rgb(0,0,0)" stroke-opacity="1" stroke-width="1" stroke-linecap="butt" stroke-linejoin="miter" stroke-miterlimit="1.45"/><path d="M 604.2308169600003,-166.84166666666655 L 643.5522455314289,-142.3749999999999 L 604.2308169600003,-117.90833333333322 L 564.9093883885718,-142.3749999999999 Z" fill="none" stroke="rgb(0,0,0)" stroke-opacity="1" stroke-width="1" stroke-linecap="butt" stroke-linejoin="miter" stroke-miterlimit="1.45"/></g><g transform="translate(559.2308169600003 -170.3749999999999)"><text font-family="'Arial'" font-size="12px" font-style="normal" font-weight="normal" text-decoration="none" text-anchor="middle" fill="rgb(0,0,0)" fill-opacity="1" dy="0.9166666666666666em" transform="translate(45 21)">manages</text></g><g><path d="M 727.9682969600008,112.02561279999941 C 705.876906966769,112.02561279999941 687.9682969600008,103.07130779661529 687.9682969600008,92.02561279999941 C 687.9682969600008,80.97991780338353 705.876906966769,72.02561279999941 727.9682969600008,72.02561279999941 C 750.0596869532326,72.02561279999941 767.9682969600008,80.97991780338353 767.9682969600008,92.02561279999941 C 767.9682969600008,103.07130779661529 750.0596869532326,112.02561279999941 727.9682969600008,112.02561279999941 Z" fill="url(#ygc193_26)" stroke="rgb(0,0,0)" stroke-opacity="1" stroke-width="1" stroke-linecap="butt" stroke-linejoin="miter" stroke-miterlimit="1.45"/></g><g transform="translate(687.9682969600008 72.02561279999941)"><text font-family="'Arial'" font-size="12px" font-style="normal" font-weight="normal" text-decoration="none" text-anchor="middle" fill="rgb(0,0,0)" fill-opacity="1" transform="translate(40 4)"><tspan dy="0.9166666666666666em" x="0">Type</tspan><tspan dy="1.5em" x="0">(+/-)</tspan></text></g><g><path d="M 486.74333695999985,134.46624999999995 C 464.6519469667681,134.46624999999995 446.74333695999985,125.51194499661582 446.74333695999985,114.46624999999995 C 446.74333695999985,103.42055500338407 464.6519469667681,94.46624999999995 486.74333695999985,94.46624999999995 C 508.8347269532316,94.46624999999995 526.7433369599999,103.42055500338407 526.7433369599999,114.46624999999995 C 526.7433369599999,125.51194499661582 508.8347269532316,134.46624999999995 486.74333695999985,134.46624999999995 Z" fill="url(#ygc193_27)" stroke="rgb(0,0,0)" stroke-opacity="1" stroke-width="1" stroke-linecap="butt" stroke-linejoin="miter" stroke-miterlimit="1.45"/></g><g transform="translate(446.74333695999985 94.46624999999995)"><text font-family="'Arial'" font-size="12px" font-style="normal" font-weight="normal" text-decoration="none" text-anchor="middle" fill="rgb(0,0,0)" fill-opacity="1" dy="0.9166666666666666em" transform="translate(40 13)">Overall value</text></g><g><path d="M 916.8432969600008,-336.2217759999999 L 996.8432969600008,-336.2217759999999 L 996.8432969600008,-296.2217759999999 L 916.8432969600008,-296.2217759999999 Z" fill="url(#ygc193_28)" stroke="rgb(0,0,0)" stroke-opacity="1" stroke-width="1" stroke-linecap="butt" stroke-linejoin="miter" stroke-miterlimit="1.45"/><path d="M 919.8432969600008,-333.2217759999999 L 993.8432969600008,-333.2217759999999 L 993.8432969600008,-299.2217759999999 L 919.8432969600008,-299.2217759999999 Z" fill="none" stroke="rgb(0,0,0)" stroke-opacity="1" stroke-width="1" stroke-linecap="butt" stroke-linejoin="miter" stroke-miterlimit="1.45"/></g><g transform="translate(916.8432969600008 -336.2217759999999)"><text font-family="'Arial'" font-size="12px" font-style="normal" font-weight="normal" text-decoration="none" text-anchor="middle" fill="rgb(0,0,0)" fill-opacity="1" dy="0.9166666666666666em" transform="translate(40 13)">Source</text></g><g><path d="M 789.1749039400015,-168.70679359999986 L 834.1749039400015,-140.70679359999986 L 789.1749039400015,-112.70679359999986 L 744.1749039400015,-140.70679359999986 Z" fill="url(#ygc193_29)" stroke="rgb(0,0,0)" stroke-opacity="1" stroke-width="1" stroke-linecap="butt" stroke-linejoin="miter" stroke-miterlimit="1.45"/><path d="M 789.1749039400015,-165.17346026666652 L 828.4963325114301,-140.70679359999986 L 789.1749039400015,-116.24012693333319 L 749.853475368573,-140.70679359999986 Z" fill="none" stroke="rgb(0,0,0)" stroke-opacity="1" stroke-width="1" stroke-linecap="butt" stroke-linejoin="miter" stroke-miterlimit="1.45"/></g><g transform="translate(744.1749039400015 -168.70679359999986)"><text font-family="'Arial'" font-size="12px" font-style="normal" font-weight="normal" text-decoration="none" text-anchor="middle" fill="rgb(0,0,0)" fill-opacity="1" dy="0.9166666666666666em" transform="translate(45 21)">happened at</text></g><g><path d="M 566.7433369599999,166.46624999999995 C 544.651946966768,166.46624999999995 526.7433369599999,157.51194499661582 526.7433369599999,146.46624999999995 C 526.7433369599999,135.42055500338407 544.651946966768,126.46624999999995 566.7433369599999,126.46624999999995 C 588.8347269532317,126.46624999999995 606.7433369599999,135.42055500338407 606.7433369599999,146.46624999999995 C 606.7433369599999,157.51194499661582 588.8347269532317,166.46624999999995 566.7433369599999,166.46624999999995 Z" fill="url(#ygc193_30)" stroke="rgb(0,0,0)" stroke-opacity="1" stroke-width="1" stroke-linecap="butt" stroke-linejoin="miter" stroke-miterlimit="1.45"/></g><g transform="translate(526.7433369599999 126.46624999999995)"><text font-family="'Arial'" font-size="12px" font-style="normal" font-weight="normal" text-decoration="none" text-anchor="middle" fill="rgb(0,0,0)" fill-opacity="1" dy="0.9166666666666666em" transform="translate(40 13)">Timestamp</text></g><g><path d="M 727.9682969600008,46.80818880000015 C 705.876906966769,46.80818880000015 687.9682969600008,37.85388379661603 687.9682969600008,26.808188800000153 C 687.9682969600008,15.762493803384272 705.876906966769,6.808188800000153 727.9682969600008,6.808188800000153 C 750.0596869532326,6.808188800000153 767.9682969600008,15.762493803384272 767.9682969600008,26.808188800000153 C 767.9682969600008,37.85388379661603 750.0596869532326,46.80818880000015 727.9682969600008,46.80818880000015 Z" fill="url(#ygc193_31)" stroke="rgb(0,0,0)" stroke-opacity="1" stroke-width="1" stroke-linecap="square" stroke-linejoin="miter" stroke-miterlimit="1.45"/></g><g transform="translate(687.9682969600008 6.808188800000153)"><text font-family="'Arial'" font-size="12px" font-style="normal" font-weight="bold" text-decoration="underline" text-anchor="middle" fill="rgb(0,0,0)" fill-opacity="1" xml:space="preserve" transform="translate(40 13)"><tspan class="yfiles-label-p" dy="11px" x="0"><tspan class="yfiles-label-u" style="text-decoration: underline;">CashflowID</tspan></tspan></text></g><g><path d="M 1259.4247129200012,-164.8452575999993 C 1237.3333229267694,-164.8452575999993 1219.4247129200012,-173.7995626033834 1219.4247129200012,-184.8452575999993 C 1219.4247129200012,-195.89095259661516 1237.3333229267694,-204.8452575999993 1259.4247129200012,-204.8452575999993 C 1281.516102913233,-204.8452575999993 1299.4247129200012,-195.89095259661516 1299.4247129200012,-184.8452575999993 C 1299.4247129200012,-173.7995626033834 1281.516102913233,-164.8452575999993 1259.4247129200012,-164.8452575999993 Z" fill="url(#ygc193_32)" stroke="rgb(0,0,0)" stroke-opacity="1" stroke-width="1" stroke-linecap="butt" stroke-linejoin="miter" stroke-miterlimit="1.45"/></g><g transform="translate(1219.4247129200012 -204.8452575999993)"><text font-family="'Arial'" font-size="12px" font-style="normal" font-weight="normal" text-decoration="none" text-anchor="middle" fill="rgb(0,0,0)" fill-opacity="1" dy="0.9166666666666666em" transform="translate(40 13)">Name</text></g><g><path d="M 727.9682969600008,410.54583519999983 C 705.876906966769,410.54583519999983 687.9682969600008,401.59153019661574 687.9682969600008,390.54583519999983 C 687.9682969600008,379.5001402033839 705.876906966769,370.54583519999983 727.9682969600008,370.54583519999983 C 750.0596869532326,370.54583519999983 767.9682969600008,379.5001402033839 767.9682969600008,390.54583519999983 C 767.9682969600008,401.59153019661574 750.0596869532326,410.54583519999983 727.9682969600008,410.54583519999983 Z" fill="url(#ygc193_33)" stroke="rgb(0,0,0)" stroke-opacity="1" stroke-width="1" stroke-linecap="butt" stroke-linejoin="miter" stroke-miterlimit="1.45"/></g><g transform="translate(687.9682969600008 370.54583519999983)"><text font-family="'Arial'" font-size="12px" font-style="normal" font-weight="bold" text-decoration="underline" text-anchor="middle" fill="rgb(0,0,0)" fill-opacity="1" dy="0.9166666666666666em" transform="translate(40 13)">ItemID</text></g><g><path d="M 618.5682969600014,401.55405919999987 C 593.7154832176157,401.55405919999987 573.5682969600014,391.1670653960743 573.5682969600014,378.3540591999999 C 573.5682969600014,365.54105300392547 593.7154832176157,355.1540591999999 618.5682969600014,355.1540591999999 C 643.4211107023871,355.1540591999999 663.5682969600014,365.54105300392547 663.5682969600014,378.3540591999999 C 663.5682969600014,391.1670653960743 643.4211107023871,401.55405919999987 618.5682969600014,401.55405919999987 Z" fill="url(#ygc193_34)" stroke="rgb(0,0,0)" stroke-opacity="1" stroke-width="1" stroke-linecap="butt" stroke-linejoin="miter" stroke-miterlimit="1.45"/></g><g transform="translate(573.5682969600014 355.1540591999999)"><text font-family="'Arial'" font-size="12px" font-style="normal" font-weight="normal" text-decoration="none" text-anchor="middle" fill="rgb(0,0,0)" fill-opacity="1" transform="translate(45 7.199999999999989)"><tspan dy="0.9166666666666666em" x="0">Value</tspan><tspan dy="1.5em" x="0">(summed up)</tspan></text></g><g><path d="M 841.2359219600014,297.2958352000001 C 819.1445319667696,297.2958352000001 801.2359219600014,288.341530196616 801.2359219600014,277.2958352000001 C 801.2359219600014,266.2501402033842 819.1445319667696,257.2958352000001 841.2359219600014,257.2958352000001 C 863.3273119532332,257.2958352000001 881.2359219600014,266.2501402033842 881.2359219600014,277.2958352000001 C 881.2359219600014,288.341530196616 863.3273119532332,297.2958352000001 841.2359219600014,297.2958352000001 Z" fill="url(#ygc193_35)" stroke="rgb(0,0,0)" stroke-opacity="1" stroke-width="1" stroke-linecap="butt" stroke-linejoin="miter" stroke-miterlimit="1.45"/></g><g transform="translate(801.2359219600014 257.2958352000001)"><text font-family="'Arial'" font-size="12px" font-style="normal" font-weight="normal" text-decoration="none" text-anchor="middle" fill="rgb(0,0,0)" fill-opacity="1" dy="0.9166666666666666em" transform="translate(40 13)">Amount</text></g><g><path d="M 298.71829696000077,0.10420320000110905 C 276.626906966769,0.10420320000110905 258.71829696000077,-8.85010180338301 258.71829696000077,-19.89579679999889 C 258.71829696000077,-30.94149179661477 276.626906966769,-39.89579679999889 298.71829696000077,-39.89579679999889 C 320.80968695323253,-39.89579679999889 338.71829696000077,-30.94149179661477 338.71829696000077,-19.89579679999889 C 338.71829696000077,-8.85010180338301 320.80968695323253,0.10420320000110905 298.71829696000077,0.10420320000110905 Z" fill="url(#ygc193_36)" stroke="rgb(0,0,0)" stroke-opacity="1" stroke-width="1" stroke-linecap="butt" stroke-linejoin="miter" stroke-miterlimit="1.45"/></g><g transform="translate(258.71829696000077 -39.89579679999889)"><text font-family="'Arial'" font-size="12px" font-style="normal" font-weight="normal" text-decoration="none" text-anchor="middle" fill="rgb(0,0,0)" fill-opacity="1" dy="0.9166666666666666em" transform="translate(40 13)">Name</text></g><g><path d="M 168.84329696000077,-70.46579679999905 C 146.751906966769,-70.46579679999905 128.84329696000077,-79.42010180338318 128.84329696000077,-90.46579679999905 C 128.84329696000077,-101.51149179661493 146.751906966769,-110.46579679999905 168.84329696000077,-110.46579679999905 C 190.93468695323253,-110.46579679999905 208.84329696000077,-101.51149179661493 208.84329696000077,-90.46579679999905 C 208.84329696000077,-79.42010180338318 190.93468695323253,-70.46579679999905 168.84329696000077,-70.46579679999905 Z" fill="url(#ygc193_37)" stroke="rgb(0,0,0)" stroke-opacity="1" stroke-width="1" stroke-linecap="butt" stroke-linejoin="miter" stroke-miterlimit="1.45"/></g><g transform="translate(128.84329696000077 -110.46579679999905)"><text font-family="'Arial'" font-size="12px" font-style="normal" font-weight="bold" text-decoration="underline" text-anchor="middle" fill="rgb(0,0,0)" fill-opacity="1" dy="0.9166666666666666em" transform="translate(40 13)">CategoryID</text></g><g><path d="M 819.7432969600006,355.2858351999998 C 797.6519069667688,355.2858351999998 779.7432969600006,346.3315301966157 779.7432969600006,335.2858351999998 C 779.7432969600006,324.2401402033839 797.6519069667688,315.2858351999998 819.7432969600006,315.2858351999998 C 841.8346869532324,315.2858351999998 859.7432969600006,324.2401402033839 859.7432969600006,335.2858351999998 C 859.7432969600006,346.3315301966157 841.8346869532324,355.2858351999998 819.7432969600006,355.2858351999998 Z" fill="url(#ygc193_38)" stroke="rgb(0,0,0)" stroke-opacity="1" stroke-width="1" stroke-linecap="butt" stroke-linejoin="miter" stroke-miterlimit="1.45"/></g><g transform="translate(779.7432969600006 315.2858351999998)"><text font-family="'Arial'" font-size="12px" font-style="normal" font-weight="normal" text-decoration="none" text-anchor="middle" fill="rgb(0,0,0)" fill-opacity="1" dy="0.9166666666666666em" transform="translate(40 13)">Name</text></g><g><path d="M 1259.424712920001,-96.83275760000066 C 1234.5718991776153,-96.83275760000066 1214.424712920001,-105.78706260338478 1214.424712920001,-116.83275760000066 C 1214.424712920001,-127.87845259661654 1234.5718991776153,-136.83275760000066 1259.424712920001,-136.83275760000066 C 1284.2775266623867,-136.83275760000066 1304.424712920001,-127.87845259661654 1304.424712920001,-116.83275760000066 C 1304.424712920001,-105.78706260338478 1284.2775266623867,-96.83275760000066 1259.424712920001,-96.83275760000066 Z" fill="url(#ygc193_32)" stroke="rgb(0,0,0)" stroke-opacity="1" stroke-width="1" stroke-linecap="butt" stroke-linejoin="miter" stroke-miterlimit="1.45"/></g><g transform="translate(1214.424712920001 -136.83275760000066)"><text font-family="'Arial'" font-size="12px" font-style="normal" font-weight="normal" text-decoration="none" text-anchor="middle" fill="rgb(0,0,0)" fill-opacity="1" dy="0.9166666666666666em" transform="translate(45 13)">Address</text></g><g><path d="M 1085.9247129200014,-296.2217759999999 C 1063.8333229267696,-296.2217759999999 1045.9247129200014,-305.176081003384 1045.9247129200014,-316.2217759999999 C 1045.9247129200014,-327.2674709966158 1063.8333229267696,-336.2217759999999 1085.9247129200014,-336.2217759999999 C 1108.0161029132332,-336.2217759999999 1125.9247129200014,-327.2674709966158 1125.9247129200014,-316.2217759999999 C 1125.9247129200014,-305.176081003384 1108.0161029132332,-296.2217759999999 1085.9247129200014,-296.2217759999999 Z" fill="url(#ygc193_33)" stroke="rgb(0,0,0)" stroke-opacity="1" stroke-width="1" stroke-linecap="butt" stroke-linejoin="miter" stroke-miterlimit="1.45"/></g><g transform="translate(1045.9247129200014 -336.2217759999999)"><text font-family="'Arial'" font-size="12px" font-style="normal" font-weight="bold" text-decoration="underline" text-anchor="middle" fill="rgb(0,0,0)" fill-opacity="1" dy="0.9166666666666666em" transform="translate(40 13)">SourceID</text></g><g><path d="M 695.7239561200001,-355.3882239999999 C 673.6325661267683,-355.3882239999999 655.7239561200001,-364.342529003384 655.7239561200001,-375.3882239999999 C 655.7239561200001,-386.43391899661583 673.6325661267683,-395.3882239999999 695.7239561200001,-395.3882239999999 C 717.815346113232,-395.3882239999999 735.7239561200001,-386.43391899661583 735.7239561200001,-375.3882239999999 C 735.7239561200001,-364.342529003384 717.815346113232,-355.3882239999999 695.7239561200001,-355.3882239999999 Z" fill="url(#ygc193_23)" stroke="rgb(0,0,0)" stroke-opacity="1" stroke-width="1" stroke-linecap="butt" stroke-linejoin="miter" stroke-miterlimit="1.45"/></g><g transform="translate(655.7239561200001 -395.3882239999999)"><text font-family="'Arial'" font-size="12px" font-style="normal" font-weight="normal" text-decoration="none" text-anchor="middle" fill="rgb(0,0,0)" fill-opacity="1" xml:space="preserve" transform="translate(40 13)"><tspan class="yfiles-label-p" dy="11px" x="0">Name</tspan></text></g><g><path d="M 8.97904096000093,-394.13822399999987 C 0.6947697125390189,-394.13822399999987 -6.02095903999907,-400.85395275253796 -6.02095903999907,-409.13822399999987 C -6.02095903999907,-417.42249524746177 0.6947697125390189,-424.13822399999987 8.97904096000093,-424.13822399999987 C 17.26331220746284,-424.13822399999987 23.97904096000093,-417.42249524746177 23.97904096000093,-409.13822399999987 C 23.97904096000093,-400.85395275253796 17.26331220746284,-394.13822399999987 8.97904096000093,-394.13822399999987 Z" stroke="rgb(0,0,0)" stroke-opacity="1" stroke-width="1" stroke-linecap="butt" stroke-linejoin="miter" stroke-miterlimit="10" fill="rgb(210,222,238)" fill-opacity="1"/></g><g transform="translate(-16.02095903999907 -424.13822399999987)"><text font-family="'Arial'" font-size="12px" font-style="normal" font-weight="normal" text-decoration="none" text-anchor="middle" fill="rgb(0,0,0)" fill-opacity="1" dy="0.9166666666666666em" transform="translate(25 8)">d</text></g><g><path d="M -211.11737499999913,-374.76322399999987 L -131.11737499999913,-374.76322399999987 L -131.11737499999913,-334.76322399999987 L -211.11737499999913,-334.76322399999987 Z" fill="url(#ygc193_22)" stroke="rgb(0,0,0)" stroke-opacity="1" stroke-width="1" stroke-linecap="butt" stroke-linejoin="miter" stroke-miterlimit="1.45"/></g><g transform="translate(-211.11737499999913 -374.76322399999987)"><text font-family="'Arial'" font-size="12px" font-style="normal" font-weight="normal" text-decoration="none" text-anchor="middle" fill="rgb(0,0,0)" fill-opacity="1" dy="0.9166666666666666em" transform="translate(40 13)">Premium</text></g><g><path d="M -211.11737499999913,-476.30170560000005 L -131.11737499999913,-476.30170560000005 L -131.11737499999913,-436.30170560000005 L -211.11737499999913,-436.30170560000005 Z" fill="url(#ygc193_22)" stroke="rgb(0,0,0)" stroke-opacity="1" stroke-width="1" stroke-linecap="butt" stroke-linejoin="miter" stroke-miterlimit="1.45"/></g><g transform="translate(-211.11737499999913 -476.30170560000005)"><text font-family="'Arial'" font-size="12px" font-style="normal" font-weight="normal" text-decoration="none" text-anchor="middle" fill="rgb(0,0,0)" fill-opacity="1" dy="0.9166666666666666em" transform="translate(40 13)">Lite</text></g><g><path d="M -244.8429847560967,-247.6417055999999 C -266.93437474932847,-247.6417055999999 -284.8429847560967,-256.596010603384 -284.8429847560967,-267.6417055999999 C -284.8429847560967,-278.6874005966158 -266.93437474932847,-287.6417055999999 -244.8429847560967,-287.6417055999999 C -222.75159476286495,-287.6417055999999 -204.8429847560967,-278.6874005966158 -204.8429847560967,-267.6417055999999 C -204.8429847560967,-256.596010603384 -222.75159476286495,-247.6417055999999 -244.8429847560967,-247.6417055999999 Z" fill="url(#ygc193_23)" stroke="rgb(0,0,0)" stroke-opacity="1" stroke-width="1" stroke-linecap="butt" stroke-linejoin="miter" stroke-miterlimit="1.45"/></g><g transform="translate(-284.8429847560967 -287.6417055999999)"><text font-family="'Arial'" font-size="12px" font-style="normal" font-weight="normal" text-decoration="none" text-anchor="middle" fill="rgb(0,0,0)" fill-opacity="1" xml:space="preserve" transform="translate(40 13)"><tspan class="yfiles-label-p" dy="11px" x="0">Pay Method</tspan></text></g><g><path d="M -104.03048475609674,-247.6417055999999 C -133.61223666890865,-247.6417055999999 -157.59298475609674,-256.596010603384 -157.59298475609674,-267.6417055999999 C -157.59298475609674,-278.6874005966158 -133.61223666890865,-287.6417055999999 -104.03048475609674,-287.6417055999999 C -74.44873284328483,-287.6417055999999 -50.46798475609674,-278.6874005966158 -50.46798475609674,-267.6417055999999 C -50.46798475609674,-256.596010603384 -74.44873284328483,-247.6417055999999 -104.03048475609674,-247.6417055999999 Z" fill="url(#ygc193_23)" stroke="rgb(0,0,0)" stroke-opacity="1" stroke-width="1" stroke-linecap="butt" stroke-linejoin="miter" stroke-miterlimit="1.45"/></g><g transform="translate(-157.59298475609674 -287.6417055999999)"><text font-family="'Arial'" font-size="12px" font-style="normal" font-weight="normal" text-decoration="none" text-anchor="middle" fill="rgb(0,0,0)" fill-opacity="1" dy="0.9166666666666666em" transform="translate(53.5625 13)">Subscription Date</text></g><g><path d="M 1164.019684880004,-22.61101679999973 C 1139.1668711376183,-22.61101679999973 1119.019684880004,-31.565321803383853 1119.019684880004,-42.61101679999973 C 1119.019684880004,-53.65671179661561 1139.1668711376183,-62.61101679999973 1164.019684880004,-62.61101679999973 C 1188.8724986223897,-62.61101679999973 1209.019684880004,-53.65671179661561 1209.019684880004,-42.61101679999973 C 1209.019684880004,-31.565321803383853 1188.8724986223897,-22.61101679999973 1164.019684880004,-22.61101679999973 Z" fill="url(#ygc193_32)" stroke="rgb(0,0,0)" stroke-opacity="1" stroke-width="1" stroke-linecap="butt" stroke-linejoin="miter" stroke-miterlimit="1.45"/></g><g transform="translate(1119.019684880004 -62.61101679999973)"><text font-family="'Arial'" font-size="12px" font-style="normal" font-weight="normal" text-decoration="none" text-anchor="middle" fill="rgb(0,0,0)" fill-opacity="1" dy="0.9166666666666666em" transform="translate(45 13)">Street</text></g><g><path d="M 1240.5534448800026,21.179742399997963 C 1215.700631137617,21.179742399997963 1195.5534448800026,12.225437396613843 1195.5534448800026,1.1797423999979628 C 1195.5534448800026,-9.865952596617918 1215.700631137617,-18.820257600002037 1240.5534448800026,-18.820257600002037 C 1265.4062586223883,-18.820257600002037 1285.5534448800026,-9.865952596617918 1285.5534448800026,1.1797423999979628 C 1285.5534448800026,12.225437396613843 1265.4062586223883,21.179742399997963 1240.5534448800026,21.179742399997963 Z" fill="url(#ygc193_32)" stroke="rgb(0,0,0)" stroke-opacity="1" stroke-width="1" stroke-linecap="butt" stroke-linejoin="miter" stroke-miterlimit="1.45"/></g><g transform="translate(1195.5534448800026 -18.820257600002037)"><text font-family="'Arial'" font-size="12px" font-style="normal" font-weight="normal" text-decoration="none" text-anchor="middle" fill="rgb(0,0,0)" fill-opacity="1" dy="0.9166666666666666em" transform="translate(45 13)">Zip</text></g><g><path d="M 1343.297136840007,21.179742399997963 C 1318.4443230976212,21.179742399997963 1298.297136840007,12.225437396613843 1298.297136840007,1.1797423999979628 C 1298.297136840007,-9.865952596617918 1318.4443230976212,-18.820257600002037 1343.297136840007,-18.820257600002037 C 1368.1499505823926,-18.820257600002037 1388.297136840007,-9.865952596617918 1388.297136840007,1.1797423999979628 C 1388.297136840007,12.225437396613843 1368.1499505823926,21.179742399997963 1343.297136840007,21.179742399997963 Z" fill="url(#ygc193_32)" stroke="rgb(0,0,0)" stroke-opacity="1" stroke-width="1" stroke-linecap="butt" stroke-linejoin="miter" stroke-miterlimit="1.45"/></g><g transform="translate(1298.297136840007 -18.820257600002037)"><text font-family="'Arial'" font-size="12px" font-style="normal" font-weight="normal" text-decoration="none" text-anchor="middle" fill="rgb(0,0,0)" fill-opacity="1" dy="0.9166666666666666em" transform="translate(45 13)">City</text></g><g><path d="M 1394.7359248800049,-38.59101679999952 C 1369.8831111376192,-38.59101679999952 1349.7359248800049,-47.545321803383644 1349.7359248800049,-58.59101679999952 C 1349.7359248800049,-69.6367117966154 1369.8831111376192,-78.59101679999952 1394.7359248800049,-78.59101679999952 C 1419.5887386223906,-78.59101679999952 1439.7359248800049,-69.6367117966154 1439.7359248800049,-58.59101679999952 C 1439.7359248800049,-47.545321803383644 1419.5887386223906,-38.59101679999952 1394.7359248800049,-38.59101679999952 Z" fill="url(#ygc193_32)" stroke="rgb(0,0,0)" stroke-opacity="1" stroke-width="1" stroke-linecap="butt" stroke-linejoin="miter" stroke-miterlimit="1.45"/></g><g transform="translate(1349.7359248800049 -78.59101679999952)"><text font-family="'Arial'" font-size="12px" font-style="normal" font-weight="normal" text-decoration="none" text-anchor="middle" fill="rgb(0,0,0)" fill-opacity="1" dy="0.9166666666666666em" transform="translate(45 13)">Number</text></g><g><path d="M 704.9114561200001,161.46072399999977 L 754.0989561200001,184.66072399999976 L 704.9114561200001,207.86072399999975 L 655.7239561200001,184.66072399999976 Z" fill="rgb(183,201,227)" fill-opacity="1" stroke="rgb(0,0,0)" stroke-opacity="1" stroke-width="1" stroke-linecap="butt" stroke-linejoin="miter" stroke-miterlimit="10"/><path d="M 704.9114561200001,164.77768149450748 L 747.0665058285736,184.66072399999976 L 704.9114561200001,204.54376650549204 L 662.7564064114267,184.66072399999976 Z" fill="none" stroke="rgb(0,0,0)" stroke-opacity="1" stroke-width="1" stroke-linecap="butt" stroke-linejoin="miter" stroke-miterlimit="10"/></g><g transform="translate(655.7239561200001 161.46072399999977)"><text font-family="'Arial'" font-size="12px" font-style="normal" font-weight="normal" text-decoration="none" text-anchor="middle" fill="rgb(0,0,0)" fill-opacity="1" dy="0.9166666666666666em" transform="translate(49.1875 16.19999999999999)">Contains</text></g><g><path d="M 663.1489689200014,260.0258351999998 L 743.1489689200014,260.0258351999998 L 743.1489689200014,300.0258351999999 L 663.1489689200014,300.0258351999999 Z" fill="rgb(183,201,227)" fill-opacity="1" stroke="rgb(0,0,0)" stroke-opacity="1" stroke-width="1" stroke-linecap="butt" stroke-linejoin="miter" stroke-miterlimit="10"/><path d="M 666.1489689200014,263.0258351999998 L 740.1489689200014,263.0258351999998 L 740.1489689200014,297.0258351999999 L 666.1489689200014,297.0258351999999 Z" fill="none" stroke="rgb(0,0,0)" stroke-opacity="1" stroke-width="1" stroke-linecap="butt" stroke-linejoin="miter" stroke-miterlimit="10"/></g><g transform="translate(663.1489689200014 260.0258351999998)"><rect fill="rgb(255,255,255)" stroke="rgb(255,255,255)" width="80" height="40" x="0" y="0" fill-opacity="0" stroke-opacity="0" stroke-width="1" stroke-linecap="butt" stroke-linejoin="miter" stroke-miterlimit="10" rx="0" ry="0"/><text font-family="'Arial'" font-size="12px" font-style="normal" font-weight="normal" text-decoration="none" text-anchor="middle" fill="rgb(0,0,0)" fill-opacity="1" dy="0.9166666666666666em" transform="translate(40 13.000000000000057)">Item</text></g><g><path d="M 8.97904096000093,-308.9782239999999 C -13.112349033230831,-308.9782239999999 -31.02095903999907,-317.932529003384 -31.02095903999907,-328.9782239999999 C -31.02095903999907,-340.0239189966158 -13.112349033230831,-348.9782239999999 8.97904096000093,-348.9782239999999 C 31.07043095323269,-348.9782239999999 48.97904096000093,-340.0239189966158 48.97904096000093,-328.9782239999999 C 48.97904096000093,-317.932529003384 31.07043095323269,-308.9782239999999 8.97904096000093,-308.9782239999999 Z" fill="url(#ygc193_20)" stroke="rgb(0,0,0)" stroke-opacity="1" stroke-width="1" stroke-linecap="butt" stroke-linejoin="miter" stroke-miterlimit="1.45"/></g><g transform="translate(-31.02095903999907 -348.9782239999999)"><text font-family="'Arial'" font-size="12px" font-style="normal" font-weight="normal" text-decoration="none" text-anchor="middle" fill="rgb(0,0,0)" fill-opacity="1" dy="0.9166666666666666em" transform="translate(40 13)">Date Joined</text></g><g><path d="M 100.47499999999991,-308.9782239999999 C 78.38361000676815,-308.9782239999999 60.47499999999991,-317.932529003384 60.47499999999991,-328.9782239999999 C 60.47499999999991,-340.0239189966158 78.38361000676815,-348.9782239999999 100.47499999999991,-348.9782239999999 C 122.56638999323167,-348.9782239999999 140.4749999999999,-340.0239189966158 140.4749999999999,-328.9782239999999 C 140.4749999999999,-317.932529003384 122.56638999323167,-308.9782239999999 100.47499999999991,-308.9782239999999 Z" fill="url(#ygc193_20)" stroke="rgb(0,0,0)" stroke-opacity="1" stroke-width="1" stroke-linecap="butt" stroke-linejoin="miter" stroke-miterlimit="1.45"/></g><g transform="translate(60.47499999999991 -348.9782239999999)"><text font-family="'Arial'" font-size="12px" font-style="normal" font-weight="normal" text-decoration="none" text-anchor="middle" fill="rgb(0,0,0)" fill-opacity="1" dy="0.9166666666666666em" transform="translate(40 13)">Last Login</text></g><g><path d="M 200.1109219600014,-308.9782239999999 C 178.01953196676965,-308.9782239999999 160.1109219600014,-317.932529003384 160.1109219600014,-328.9782239999999 C 160.1109219600014,-340.0239189966158 178.01953196676965,-348.9782239999999 200.1109219600014,-348.9782239999999 C 222.20231195323316,-348.9782239999999 240.1109219600014,-340.0239189966158 240.1109219600014,-328.9782239999999 C 240.1109219600014,-317.932529003384 222.20231195323316,-308.9782239999999 200.1109219600014,-308.9782239999999 Z" fill="url(#ygc193_20)" stroke="rgb(0,0,0)" stroke-opacity="1" stroke-width="1" stroke-linecap="butt" stroke-linejoin="miter" stroke-miterlimit="1.45"/></g><g transform="translate(160.1109219600014 -348.9782239999999)"><text font-family="'Arial'" font-size="12px" font-style="normal" font-weight="normal" text-decoration="none" text-anchor="middle" fill="rgb(0,0,0)" fill-opacity="1" dy="0.9166666666666666em" transform="translate(40 13)">Is Active</text></g><g><path d="M 279.9709590399989,-349.0582239999998 C 257.87956904676713,-349.0582239999998 239.9709590399989,-358.0125290033839 239.9709590399989,-369.0582239999998 C 239.9709590399989,-380.10391899661573 257.87956904676713,-389.0582239999998 279.9709590399989,-389.0582239999998 C 302.06234903323065,-389.0582239999998 319.9709590399989,-380.10391899661573 319.9709590399989,-369.0582239999998 C 319.9709590399989,-358.0125290033839 302.06234903323065,-349.0582239999998 279.9709590399989,-349.0582239999998 Z" fill="url(#ygc193_20)" stroke="rgb(0,0,0)" stroke-opacity="1" stroke-width="1" stroke-linecap="butt" stroke-linejoin="miter" stroke-miterlimit="1.45"/></g><g transform="translate(239.9709590399989 -389.0582239999998)"><text font-family="'Arial'" font-size="12px" font-style="normal" font-weight="normal" text-decoration="none" text-anchor="middle" fill="rgb(0,0,0)" fill-opacity="1" dy="0.9166666666666666em" transform="translate(40 13)">Is Superuser</text></g><g><path d="M 956.8432969600008,-226.06177599999984 C 948.5590257125389,-226.06177599999984 941.8432969600008,-232.77750475253794 941.8432969600008,-241.06177599999984 C 941.8432969600008,-249.34604724746174 948.5590257125389,-256.06177599999984 956.8432969600008,-256.06177599999984 C 965.1275682074627,-256.06177599999984 971.8432969600008,-249.34604724746174 971.8432969600008,-241.06177599999984 C 971.8432969600008,-232.77750475253794 965.1275682074627,-226.06177599999984 956.8432969600008,-226.06177599999984 Z" stroke="rgb(0,0,0)" stroke-opacity="1" stroke-width="1" stroke-linecap="butt" stroke-linejoin="miter" stroke-miterlimit="10" fill="rgb(210,222,238)" fill-opacity="1"/></g><g transform="translate(931.8432969600008 -256.06177599999984)"><text font-family="'Arial'" font-size="12px" font-style="normal" font-weight="normal" text-decoration="none" text-anchor="middle" fill="rgb(0,0,0)" fill-opacity="1" dy="0.9166666666666666em" transform="translate(25 8)">d</text></g><g><path d="M 1118.0534448800024,-196.95275760000004 L 1198.0534448800024,-196.95275760000004 L 1198.0534448800024,-156.95275760000004 L 1118.0534448800024,-156.95275760000004 Z" fill="url(#ygc193_22)" stroke="rgb(0,0,0)" stroke-opacity="1" stroke-width="1" stroke-linecap="butt" stroke-linejoin="miter" stroke-miterlimit="1.45"/><path d="M 1121.0534448800024,-193.95275760000004 L 1195.0534448800024,-193.95275760000004 L 1195.0534448800024,-159.95275760000004 L 1121.0534448800024,-159.95275760000004 Z" fill="none" stroke="rgb(0,0,0)" stroke-opacity="1" stroke-width="1" stroke-linecap="butt" stroke-linejoin="miter" stroke-miterlimit="1.45"/></g><g transform="translate(1118.0534448800024 -196.95275760000004)"><text font-family="'Arial'" font-size="12px" font-style="normal" font-weight="normal" text-decoration="none" text-anchor="middle" fill="rgb(0,0,0)" fill-opacity="1" dy="0.9166666666666666em" transform="translate(40 13)">Store</text></g><g><path d="M 974.2274328800045,-136.83275760000066 L 1054.2274328800045,-136.83275760000066 L 1054.2274328800045,-96.83275760000066 L 974.2274328800045,-96.83275760000066 Z" fill="url(#ygc193_22)" stroke="rgb(0,0,0)" stroke-opacity="1" stroke-width="1" stroke-linecap="butt" stroke-linejoin="miter" stroke-miterlimit="1.45"/><path d="M 977.2274328800045,-133.83275760000066 L 1051.2274328800045,-133.83275760000066 L 1051.2274328800045,-99.83275760000066 L 977.2274328800045,-99.83275760000066 Z" fill="none" stroke="rgb(0,0,0)" stroke-opacity="1" stroke-width="1" stroke-linecap="butt" stroke-linejoin="miter" stroke-miterlimit="1.45"/></g><g transform="translate(974.2274328800045 -136.83275760000066)"><text font-family="'Arial'" font-size="12px" font-style="normal" font-weight="normal" text-decoration="none" text-anchor="middle" fill="rgb(0,0,0)" fill-opacity="1" dy="0.9166666666666666em" transform="translate(40 13)">Private</text></g><g><path d="M 1001.9517389200028,-25.724387200000592 C 979.8603489267709,-25.724387200000592 961.9517389200028,-34.67869220338471 961.9517389200028,-45.72438720000059 C 961.9517389200028,-56.77008219661647 979.8603489267709,-65.72438720000059 1001.9517389200028,-65.72438720000059 C 1024.0431289132346,-65.72438720000059 1041.9517389200028,-56.77008219661647 1041.9517389200028,-45.72438720000059 C 1041.9517389200028,-34.67869220338471 1024.0431289132346,-25.724387200000592 1001.9517389200028,-25.724387200000592 Z" fill="url(#ygc193_32)" stroke="rgb(0,0,0)" stroke-opacity="1" stroke-width="1" stroke-linecap="butt" stroke-linejoin="miter" stroke-miterlimit="1.45"/></g><g transform="translate(961.9517389200028 -65.72438720000059)"><text font-family="'Arial'" font-size="12px" font-style="normal" font-weight="normal" text-decoration="none" text-anchor="middle" fill="rgb(0,0,0)" fill-opacity="1" dy="0.9166666666666666em" transform="translate(40 13)">Name</text></g><g><path d="M 941.8432969600008,37.50898319999976 C 919.751906966769,37.50898319999976 901.8432969600008,28.55467819661564 901.8432969600008,17.50898319999976 C 901.8432969600008,6.463288203383881 919.751906966769,-2.4910168000002386 941.8432969600008,-2.4910168000002386 C 963.9346869532326,-2.4910168000002386 981.8432969600008,6.463288203383881 981.8432969600008,17.50898319999976 C 981.8432969600008,28.55467819661564 963.9346869532326,37.50898319999976 941.8432969600008,37.50898319999976 Z" fill="url(#ygc193_32)" stroke="rgb(0,0,0)" stroke-opacity="1" stroke-width="1" stroke-linecap="butt" stroke-linejoin="miter" stroke-miterlimit="1.45"/></g><g transform="translate(901.8432969600008 -2.4910168000002386)"><text font-family="'Arial'" font-size="12px" font-style="normal" font-weight="normal" text-decoration="none" text-anchor="middle" fill="rgb(0,0,0)" fill-opacity="1" dy="0.9166666666666666em" transform="translate(40 13)">First name</text></g><g><path d="M 1052.3432969600008,37.50898319999965 C 1030.251906966769,37.50898319999965 1012.3432969600008,28.554678196615527 1012.3432969600008,17.508983199999648 C 1012.3432969600008,6.463288203383767 1030.251906966769,-2.4910168000003523 1052.3432969600008,-2.4910168000003523 C 1074.4346869532326,-2.4910168000003523 1092.3432969600008,6.463288203383767 1092.3432969600008,17.508983199999648 C 1092.3432969600008,28.554678196615527 1074.4346869532326,37.50898319999965 1052.3432969600008,37.50898319999965 Z" fill="url(#ygc193_32)" stroke="rgb(0,0,0)" stroke-opacity="1" stroke-width="1" stroke-linecap="butt" stroke-linejoin="miter" stroke-miterlimit="1.45"/></g><g transform="translate(1012.3432969600008 -2.4910168000003523)"><text font-family="'Arial'" font-size="12px" font-style="normal" font-weight="normal" text-decoration="none" text-anchor="middle" fill="rgb(0,0,0)" fill-opacity="1" dy="0.9166666666666666em" transform="translate(40 13)">Last name</text></g><g><path d="M -171.11737499999913,-529.6417055999998 C -204.08187100552465,-529.6417055999998 -230.80487499999913,-538.5960106033839 -230.80487499999913,-549.6417055999998 C -230.80487499999913,-560.6874005966157 -204.08187100552465,-569.6417055999998 -171.11737499999913,-569.6417055999998 C -138.1528789944736,-569.6417055999998 -111.42987499999913,-560.6874005966157 -111.42987499999913,-549.6417055999998 C -111.42987499999913,-538.5960106033839 -138.1528789944736,-529.6417055999998 -171.11737499999913,-529.6417055999998 Z" fill="url(#ygc193_23)" stroke="rgb(0,0,0)" stroke-opacity="1" stroke-width="1" stroke-linecap="butt" stroke-linejoin="miter" stroke-miterlimit="1.45"/></g><g transform="translate(-230.80487499999913 -569.6417055999998)"><text font-family="'Arial'" font-size="12px" font-style="normal" font-weight="normal" text-decoration="none" text-anchor="middle" fill="rgb(0,0,0)" fill-opacity="1" dy="0.9166666666666666em" transform="translate(59.6875 13)">Show Premium Ad</text></g><g><path d="M 772.1183369599999,-344.2217759999999 L 817.1183369599999,-316.2217759999999 L 772.1183369599999,-288.2217759999999 L 727.1183369599999,-316.2217759999999 Z" fill="url(#ygc193_29)" stroke="rgb(0,0,0)" stroke-opacity="1" stroke-width="1" stroke-linecap="butt" stroke-linejoin="miter" stroke-miterlimit="1.45"/></g><g transform="translate(727.1183369599999 -344.2217759999999)"><text font-family="'Arial'" font-size="12px" font-style="normal" font-weight="normal" text-decoration="none" text-anchor="middle" fill="rgb(0,0,0)" fill-opacity="1" dy="0.9166666666666666em" transform="translate(45 21)">has</text></g><g><path d="M 258.71829696000077,-136.83275760000078 L 338.71829696000077,-136.83275760000078 L 338.71829696000077,-96.83275760000066 L 258.71829696000077,-96.83275760000066 Z" fill="rgb(183,201,227)" fill-opacity="1" stroke="rgb(0,0,0)" stroke-opacity="1" stroke-width="1" stroke-linecap="butt" stroke-linejoin="miter" stroke-miterlimit="10"/><path d="M 261.71829696000077,-133.83275760000078 L 335.71829696000077,-133.83275760000078 L 335.71829696000077,-99.83275760000066 L 261.71829696000077,-99.83275760000066 Z" fill="none" stroke="rgb(0,0,0)" stroke-opacity="1" stroke-width="1" stroke-linecap="butt" stroke-linejoin="miter" stroke-miterlimit="10"/></g><g transform="translate(258.71829696000077 -136.83275760000078)"><rect fill="rgb(255,255,255)" stroke="rgb(255,255,255)" width="80" height="40" x="0" y="0" fill-opacity="0" stroke-opacity="0" stroke-width="1" stroke-linecap="butt" stroke-linejoin="miter" stroke-miterlimit="10" rx="0" ry="0"/><text font-family="'Arial'" font-size="12px" font-style="normal" font-weight="normal" text-decoration="none" text-anchor="middle" fill="rgb(0,0,0)" fill-opacity="1" dy="0.9166666666666666em" transform="translate(40 13.000000000000057)">Item</text></g><g><path d="M 402.17086946000086,-265.75 L 447.17086946000086,-237.75 L 402.17086946000086,-209.75 L 357.17086946000086,-237.75 Z" fill="url(#ygc193_39)" stroke="rgb(0,0,0)" stroke-opacity="1" stroke-width="1" stroke-linecap="butt" stroke-linejoin="miter" stroke-miterlimit="1.45"/></g><g transform="translate(357.17086946000086 -265.75)"><text font-family="'Arial'" font-size="12px" font-style="normal" font-weight="normal" text-decoration="none" text-anchor="middle" fill="rgb(0,0,0)" fill-opacity="1" dy="0.9166666666666666em" transform="translate(45 21)">has</text></g><g><path d="M 448.97455696000054,-68.92438720000058 L 498.16205696000054,-45.72438720000059 L 448.97455696000054,-22.524387200000604 L 399.78705696000054,-45.72438720000059 Z" fill="rgb(183,201,227)" fill-opacity="1" stroke="rgb(0,0,0)" stroke-opacity="1" stroke-width="1" stroke-linecap="butt" stroke-linejoin="miter" stroke-miterlimit="10"/><path d="M 448.97455696000054,-65.60742970549289 L 491.12960666857396,-45.72438720000059 L 448.97455696000054,-25.841344694508294 L 406.8195072514271,-45.72438720000059 Z" fill="none" stroke="rgb(0,0,0)" stroke-opacity="1" stroke-width="1" stroke-linecap="butt" stroke-linejoin="miter" stroke-miterlimit="10"/></g><g transform="translate(399.78705696000054 -68.92438720000058)"><text font-family="'Arial'" font-size="12px" font-style="normal" font-weight="normal" text-decoration="none" text-anchor="middle" fill="rgb(0,0,0)" fill-opacity="1" dy="0.9166666666666666em" transform="translate(49.1875 16.19999999999999)">has</text></g></g></g></svg>